<svg xmlns="http://www.w3.org/2000/svg" viewBox="0 0 1440 1040" width="1440" height="1040" role="img" aria-labelledby="t-rrss-context-light d-rrss-context-light"><title id="t-rrss-context-light">RRSS Studio (LeadView) · contexto del sistema</title><desc id="d-rrss-context-light">Una app local que habla con proveedores de IA, fuentes de vídeo y la web que analiza</desc><defs><marker id="rrss-context-light-a-user" viewBox="0 0 10 10" refX="9" refY="5" markerWidth="8" markerHeight="8" orient="auto-start-reverse"><path d="M0,1 L9,5 L0,9 z" fill="#343A46"/></marker><marker id="rrss-context-light-a-call" viewBox="0 0 10 10" refX="9" refY="5" markerWidth="8" markerHeight="8" orient="auto-start-reverse"><path d="M0,1 L9,5 L0,9 z" fill="#586170"/></marker><marker id="rrss-context-light-a-api" viewBox="0 0 10 10" refX="9" refY="5" markerWidth="8" markerHeight="8" orient="auto-start-reverse"><path d="M0,1 L9,5 L0,9 z" fill="#4B5768"/></marker><marker id="rrss-context-light-a-ai" viewBox="0 0 10 10" refX="9" refY="5" markerWidth="8" markerHeight="8" orient="auto-start-reverse"><path d="M0,1 L9,5 L0,9 z" fill="#C2410C"/></marker><marker id="rrss-context-light-a-data" viewBox="0 0 10 10" refX="9" refY="5" markerWidth="8" markerHeight="8" orient="auto-start-reverse"><path d="M0,1 L9,5 L0,9 z" fill="#6D3FD6"/></marker><marker id="rrss-context-light-a-auth" viewBox="0 0 10 10" refX="9" refY="5" markerWidth="8" markerHeight="8" orient="auto-start-reverse"><path d="M0,1 L9,5 L0,9 z" fill="#A15C07"/></marker><marker id="rrss-context-light-a-async" viewBox="0 0 10 10" refX="9" refY="5" markerWidth="8" markerHeight="8" orient="auto-start-reverse"><path d="M0,1 L9,5 L0,9 z" fill="#586170"/></marker><marker id="rrss-context-light-a-deploy" viewBox="0 0 10 10" refX="9" refY="5" markerWidth="8" markerHeight="8" orient="auto-start-reverse"><path d="M0,1 L9,5 L0,9 z" fill="#334155"/></marker><marker id="rrss-context-light-a-local" viewBox="0 0 10 10" refX="9" refY="5" markerWidth="8" markerHeight="8" orient="auto-start-reverse"><path d="M0,1 L9,5 L0,9 z" fill="#5F6B7A"/></marker><marker id="rrss-context-light-a-human" viewBox="0 0 10 10" refX="9" refY="5" markerWidth="8" markerHeight="8" orient="auto-start-reverse"><path d="M0,1 L9,5 L0,9 z" fill="#BE123C"/></marker></defs><rect width="1440" height="1040" fill="#FBFAF7"/><text x="40" y="52" font-family="Inter, 'Segoe UI', 'Helvetica Neue', Arial, sans-serif" font-size="24" font-weight="700" fill="#14171C">RRSS Studio (LeadView) · contexto del sistema</text><text x="40" y="78" font-family="Inter, 'Segoe UI', 'Helvetica Neue', Arial, sans-serif" font-size="14" fill="#586170">Una app local que habla con proveedores de IA, fuentes de vídeo y la web que analiza</text><rect x="1246" y="34" width="154" height="24" rx="12" fill="none" stroke="#D3D8DE"/><text x="1323" y="50" text-anchor="middle" font-family="'JetBrains Mono', 'Cascadia Code', Consolas, 'SFMono-Regular', monospace" font-size="11" fill="#586170">C4 · nivel 1 · AS-IS</text><text x="40" y="1018" font-family="Inter, 'Segoe UI', 'Helvetica Neue', Arial, sans-serif" font-size="11.5" fill="#8A93A0">Fuente: jechamo/rrss-automation-app@f6510e0 · inspección 26/09/2026</text><text x="1400" y="1018" text-anchor="end" font-family="Inter, 'Segoe UI', 'Helvetica Neue', Arial, sans-serif" font-size="11.5" fill="#8A93A0">TFM · Jorge Chamorro · AS-IS</text><path d="M330,440 L440,440" fill="none" stroke="#343A46" stroke-width="1.6"  marker-end="url(#rrss-context-light-a-user)" /><path d="M1040,238 L1130,238" fill="none" stroke="#C2410C" stroke-width="1.8"  marker-end="url(#rrss-context-light-a-ai)" /><path d="M1040,351 L1130,351" fill="none" stroke="#C2410C" stroke-width="1.8"  marker-end="url(#rrss-context-light-a-ai)" /><path d="M1040,462 L1130,462" fill="none" stroke="#C2410C" stroke-width="1.8"  marker-end="url(#rrss-context-light-a-ai)" /><path d="M1040,573 L1130,573" fill="none" stroke="#C2410C" stroke-width="1.8"  marker-end="url(#rrss-context-light-a-ai)" /><path d="M1040,684 L1130,684" fill="none" stroke="#C2410C" stroke-width="1.8"  marker-end="url(#rrss-context-light-a-ai)" /><path d="M510,750 L510,830" fill="none" stroke="#4B5768" stroke-width="1.5"  marker-end="url(#rrss-context-light-a-api)" /><path d="M663,750 L663,830" fill="none" stroke="#4B5768" stroke-width="1.5"  marker-end="url(#rrss-context-light-a-api)" /><path d="M816,750 L816,830" fill="none" stroke="#4B5768" stroke-width="1.5"  marker-end="url(#rrss-context-light-a-api)" /><path d="M969.5,750 L969.5,830" fill="none" stroke="#4B5768" stroke-width="1.5"  marker-end="url(#rrss-context-light-a-api)" /><g class="node" data-id="op"><rect x="60" y="380" width="270" height="120" rx="10" fill="#FFFFFF" stroke="#CBD2DA" stroke-width="1.2"/><path d="M70,380 h-0 a10 10 0 0 0 -10 10 v100 a10 10 0 0 0 10 10" fill="none"/><rect x="60" y="390" width="3.5" height="100" rx="1.75" fill="#343A46"/><g transform="translate(74,393) scale(0.78)" fill="none" stroke="#343A46" stroke-width="1.9" stroke-linecap="round" stroke-linejoin="round"><circle cx="12" cy="8" r="4"/><path d="M4 21c0-4.4 3.6-8 8-8s8 3.6 8 8"/></g><text x="98" y="406" font-family="Inter, 'Segoe UI', 'Helvetica Neue', Arial, sans-serif" font-size="10.5" font-weight="600" letter-spacing="0.7" fill="#343A46">PERSONA</text><text x="74" y="430" font-family="Inter, 'Segoe UI', 'Helvetica Neue', Arial, sans-serif" font-size="16.5" font-weight="650" fill="#14171C">Operador</text><text x="74" y="450.5" font-family="'JetBrains Mono', 'Cascadia Code', Consolas, 'SFMono-Regular', monospace" font-size="12.2" fill="#586170">creador de contenido o equipo de</text><text x="74" y="466.5" font-family="'JetBrains Mono', 'Cascadia Code', Consolas, 'SFMono-Regular', monospace" font-size="12.2" fill="#586170">producto</text></g><g class="node" data-id="system"><rect x="440" y="190" width="600" height="560" rx="10" fill="#FFFFFF" stroke="#CBD2DA" stroke-width="1.2"/><path d="M450,190 h-0 a10 10 0 0 0 -10 10 v540 a10 10 0 0 0 10 10" fill="none"/><rect x="440" y="200" width="3.5" height="540" rx="1.75" fill="#2458D3"/><g transform="translate(454,203) scale(0.78)" fill="none" stroke="#2458D3" stroke-width="1.9" stroke-linecap="round" stroke-linejoin="round"><path d="M12 3l8 4.5v9L12 21l-8-4.5v-9z"/><path d="M4 7.5l8 4.5 8-4.5M12 12v9"/></g><text x="478" y="216" font-family="Inter, 'Segoe UI', 'Helvetica Neue', Arial, sans-serif" font-size="10.5" font-weight="600" letter-spacing="0.7" fill="#2458D3">SISTEMA LOCAL</text><text x="454" y="240" font-family="Inter, 'Segoe UI', 'Helvetica Neue', Arial, sans-serif" font-size="16.5" font-weight="650" fill="#14171C">RRSS Studio · LeadView</text><text x="454" y="260.5" font-family="'JetBrains Mono', 'Cascadia Code', Consolas, 'SFMono-Regular', monospace" font-size="12.2" fill="#586170">Next.js · SQLite · herramientas locales · IA</text><text x="454" y="279.5" font-family="Inter, 'Segoe UI', 'Helvetica Neue', Arial, sans-serif" font-size="12.8" fill="#586170">38 funcionalidades en 11 módulos · 17 con IA · se ejecuta en 127.0.0.1</text><line x1="454" y1="346" x2="1026" y2="346" stroke="#D3D8DE"/><circle cx="458" cy="356" r="2.2" fill="#2458D3"/><text x="468" y="360" font-family="'JetBrains Mono', 'Cascadia Code', Consolas, 'SFMono-Regular', monospace" font-size="12" fill="#14171C">Análisis de la app: mapa funcional y dossier</text><circle cx="458" cy="382" r="2.2" fill="#2458D3"/><text x="468" y="386" font-family="'JetBrains Mono', 'Cascadia Code', Consolas, 'SFMono-Regular', monospace" font-size="12" fill="#14171C">Competencia, leads y virales del nicho</text><circle cx="458" cy="408" r="2.2" fill="#2458D3"/><text x="468" y="412" font-family="'JetBrains Mono', 'Cascadia Code', Consolas, 'SFMono-Regular', monospace" font-size="12" fill="#14171C">Guiones, plan audiovisual y coste</text><circle cx="458" cy="434" r="2.2" fill="#2458D3"/><text x="468" y="438" font-family="'JetBrains Mono', 'Cascadia Code', Consolas, 'SFMono-Regular', monospace" font-size="12" fill="#14171C">Vídeo con IA, avatar y voz · montaje FFmpeg</text><circle cx="458" cy="460" r="2.2" fill="#2458D3"/><text x="468" y="464" font-family="'JetBrains Mono', 'Cascadia Code', Consolas, 'SFMono-Regular', monospace" font-size="12" fill="#14171C">Laboratorio de clips verticales</text><circle cx="458" cy="486" r="2.2" fill="#2458D3"/><text x="468" y="490" font-family="'JetBrains Mono', 'Cascadia Code', Consolas, 'SFMono-Regular', monospace" font-size="12" fill="#14171C">Estudio multimedia y publicación asistida</text></g><g class="node" data-id="anthropic"><rect x="1130" y="190" width="270" height="96" rx="10" fill="#FFFFFF" stroke="#CBD2DA" stroke-width="1.2"/><path d="M1140,190 h-0 a10 10 0 0 0 -10 10 v76 a10 10 0 0 0 10 10" fill="none"/><rect x="1130" y="200" width="3.5" height="76" rx="1.75" fill="#C2410C"/><g transform="translate(1144,203) scale(0.78)" fill="none" stroke="#C2410C" stroke-width="1.9" stroke-linecap="round" stroke-linejoin="round"><path d="M12 2.8l2.1 6 6.1 2.2-6.1 2.2-2.1 6-2.1-6L3.8 11l6.1-2.2z"/><path d="M19 3.5v3M17.5 5h3"/></g><text x="1168" y="216" font-family="Inter, 'Segoe UI', 'Helvetica Neue', Arial, sans-serif" font-size="10.5" font-weight="600" letter-spacing="0.7" fill="#C2410C">PROVEEDOR DE IA</text><g transform="translate(1370,202) scale(0.6667)"><path d="M17.3041 3.541h-3.6718l6.696 16.918H24Zm-10.6082 0L0 20.459h3.7442l1.3693-3.5527h7.0052l1.3693 3.5528h3.7442L10.5363 3.5409Zm-.3712 10.2232 2.2914-5.9456 2.2914 5.9456Z" fill="#191919"/></g><text x="1144" y="240" font-family="Inter, 'Segoe UI', 'Helvetica Neue', Arial, sans-serif" font-size="16.5" font-weight="650" fill="#14171C">Anthropic · Claude</text><text x="1144" y="260.5" font-family="'JetBrains Mono', 'Cascadia Code', Consolas, 'SFMono-Regular', monospace" font-size="12.2" fill="#586170">sesión del operador ·</text><text x="1144" y="276.5" font-family="'JetBrains Mono', 'Cascadia Code', Consolas, 'SFMono-Regular', monospace" font-size="12.2" fill="#586170">WebSearch/WebFetch</text></g><g class="node" data-id="gemini"><rect x="1130" y="305" width="270" height="92" rx="10" fill="#FFFFFF" stroke="#CBD2DA" stroke-width="1.2"/><path d="M1140,305 h-0 a10 10 0 0 0 -10 10 v72 a10 10 0 0 0 10 10" fill="none"/><rect x="1130" y="315" width="3.5" height="72" rx="1.75" fill="#C2410C"/><g transform="translate(1144,318) scale(0.78)" fill="none" stroke="#C2410C" stroke-width="1.9" stroke-linecap="round" stroke-linejoin="round"><path d="M12 2.8l2.1 6 6.1 2.2-6.1 2.2-2.1 6-2.1-6L3.8 11l6.1-2.2z"/><path d="M19 3.5v3M17.5 5h3"/></g><text x="1168" y="331" font-family="Inter, 'Segoe UI', 'Helvetica Neue', Arial, sans-serif" font-size="10.5" font-weight="600" letter-spacing="0.7" fill="#C2410C">PROVEEDOR DE IA</text><g transform="translate(1370,317) scale(0.6667)"><path d="M11.04 19.32Q12 21.51 12 24q0-2.49.93-4.68.96-2.19 2.58-3.81t3.81-2.55Q21.51 12 24 12q-2.49 0-4.68-.93a12.3 12.3 0 0 1-3.81-2.58 12.3 12.3 0 0 1-2.58-3.81Q12 2.49 12 0q0 2.49-.96 4.68-.93 2.19-2.55 3.81a12.3 12.3 0 0 1-3.81 2.58Q2.49 12 0 12q2.49 0 4.68.96 2.19.93 3.81 2.55t2.55 3.81" fill="#8E75B2"/></g><text x="1144" y="355" font-family="Inter, 'Segoe UI', 'Helvetica Neue', Arial, sans-serif" font-size="16.5" font-weight="650" fill="#14171C">Google Gemini</text><text x="1144" y="375.5" font-family="'JetBrains Mono', 'Cascadia Code', Consolas, 'SFMono-Regular', monospace" font-size="12.2" fill="#586170">generateContent · comprensión de</text></g><g class="node" data-id="fal"><rect x="1130" y="416" width="270" height="92" rx="10" fill="#FFFFFF" stroke="#CBD2DA" stroke-width="1.2"/><path d="M1140,416 h-0 a10 10 0 0 0 -10 10 v72 a10 10 0 0 0 10 10" fill="none"/><rect x="1130" y="426" width="3.5" height="72" rx="1.75" fill="#C2410C"/><g transform="translate(1144,429) scale(0.78)" fill="none" stroke="#C2410C" stroke-width="1.9" stroke-linecap="round" stroke-linejoin="round"><path d="M12 2.8l2.1 6 6.1 2.2-6.1 2.2-2.1 6-2.1-6L3.8 11l6.1-2.2z"/><path d="M19 3.5v3M17.5 5h3"/></g><text x="1168" y="442" font-family="Inter, 'Segoe UI', 'Helvetica Neue', Arial, sans-serif" font-size="10.5" font-weight="600" letter-spacing="0.7" fill="#C2410C">PROVEEDOR DE IA</text><text x="1144" y="466" font-family="Inter, 'Segoe UI', 'Helvetica Neue', Arial, sans-serif" font-size="16.5" font-weight="650" fill="#14171C">fal.ai</text><text x="1144" y="486.5" font-family="'JetBrains Mono', 'Cascadia Code', Consolas, 'SFMono-Regular', monospace" font-size="12.2" fill="#586170">cola de vídeo · 9 modelos</text></g><g class="node" data-id="heygen"><rect x="1130" y="527" width="270" height="92" rx="10" fill="#FFFFFF" stroke="#CBD2DA" stroke-width="1.2"/><path d="M1140,527 h-0 a10 10 0 0 0 -10 10 v72 a10 10 0 0 0 10 10" fill="none"/><rect x="1130" y="537" width="3.5" height="72" rx="1.75" fill="#C2410C"/><g transform="translate(1144,540) scale(0.78)" fill="none" stroke="#C2410C" stroke-width="1.9" stroke-linecap="round" stroke-linejoin="round"><path d="M12 2.8l2.1 6 6.1 2.2-6.1 2.2-2.1 6-2.1-6L3.8 11l6.1-2.2z"/><path d="M19 3.5v3M17.5 5h3"/></g><text x="1168" y="553" font-family="Inter, 'Segoe UI', 'Helvetica Neue', Arial, sans-serif" font-size="10.5" font-weight="600" letter-spacing="0.7" fill="#C2410C">PROVEEDOR DE IA</text><text x="1144" y="577" font-family="Inter, 'Segoe UI', 'Helvetica Neue', Arial, sans-serif" font-size="16.5" font-weight="650" fill="#14171C">HeyGen</text><text x="1144" y="597.5" font-family="'JetBrains Mono', 'Cascadia Code', Consolas, 'SFMono-Regular', monospace" font-size="12.2" fill="#586170">API v3 · avatar y voz</text></g><g class="node" data-id="eleven"><rect x="1130" y="638" width="270" height="92" rx="10" fill="#FFFFFF" stroke="#CBD2DA" stroke-width="1.2"/><path d="M1140,638 h-0 a10 10 0 0 0 -10 10 v72 a10 10 0 0 0 10 10" fill="none"/><rect x="1130" y="648" width="3.5" height="72" rx="1.75" fill="#C2410C"/><g transform="translate(1144,651) scale(0.78)" fill="none" stroke="#C2410C" stroke-width="1.9" stroke-linecap="round" stroke-linejoin="round"><path d="M12 2.8l2.1 6 6.1 2.2-6.1 2.2-2.1 6-2.1-6L3.8 11l6.1-2.2z"/><path d="M19 3.5v3M17.5 5h3"/></g><text x="1168" y="664" font-family="Inter, 'Segoe UI', 'Helvetica Neue', Arial, sans-serif" font-size="10.5" font-weight="600" letter-spacing="0.7" fill="#C2410C">PROVEEDOR DE IA</text><text x="1144" y="688" font-family="Inter, 'Segoe UI', 'Helvetica Neue', Arial, sans-serif" font-size="16.5" font-weight="650" fill="#14171C">ElevenLabs</text><text x="1144" y="708.5" font-family="'JetBrains Mono', 'Cascadia Code', Consolas, 'SFMono-Regular', monospace" font-size="12.2" fill="#586170">TTS · eleven_multilingual_v2</text></g><g class="node" data-id="scrape"><rect x="440" y="830" width="140" height="96" rx="10" fill="#FFFFFF" stroke="#CBD2DA" stroke-width="1.2"/><path d="M450,830 h-0 a10 10 0 0 0 -10 10 v76 a10 10 0 0 0 10 10" fill="none"/><rect x="440" y="840" width="3.5" height="76" rx="1.75" fill="#4B5768"/><g transform="translate(454,843) scale(0.78)" fill="none" stroke="#4B5768" stroke-width="1.9" stroke-linecap="round" stroke-linejoin="round"><circle cx="12" cy="12" r="8.5"/><path d="M3.5 12h17"/><path d="M12 3.5c2.6 2.4 3.8 5.2 3.8 8.5s-1.2 6.1-3.8 8.5c-2.6-2.4-3.8-5.2-3.8-8.5S9.4 5.9 12 3.5z"/></g><text x="478" y="856" font-family="Inter, 'Segoe UI', 'Helvetica Neue', Arial, sans-serif" font-size="10.5" font-weight="600" letter-spacing="0.7" fill="#4B5768">EXTERNO</text><text x="454" y="880" font-family="Inter, 'Segoe UI', 'Helvetica Neue', Arial, sans-serif" font-size="16.5" font-weight="650" fill="#14171C">Scrape</text><text x="454" y="899.5" font-family="Inter, 'Segoe UI', 'Helvetica Neue', Arial, sans-serif" font-size="16.5" font-weight="650" fill="#14171C">Creators</text></g><g class="node" data-id="github"><rect x="593" y="830" width="140" height="96" rx="10" fill="#FFFFFF" stroke="#CBD2DA" stroke-width="1.2"/><path d="M603,830 h-0 a10 10 0 0 0 -10 10 v76 a10 10 0 0 0 10 10" fill="none"/><rect x="593" y="840" width="3.5" height="76" rx="1.75" fill="#334155"/><g transform="translate(607,843) scale(0.78)" fill="none" stroke="#334155" stroke-width="1.9" stroke-linecap="round" stroke-linejoin="round"><circle cx="6.5" cy="5.5" r="2.2"/><circle cx="6.5" cy="18.5" r="2.2"/><circle cx="17.5" cy="8.5" r="2.2"/><path d="M6.5 7.7v8.6M17.5 10.7c0 4-11 2.5-11 5.6"/></g><text x="631" y="856" font-family="Inter, 'Segoe UI', 'Helvetica Neue', Arial, sans-serif" font-size="10.5" font-weight="600" letter-spacing="0.7" fill="#334155">EXTERNO</text><g transform="translate(703,842) scale(0.6667)"><path d="M12 .297c-6.63 0-12 5.373-12 12 0 5.303 3.438 9.8 8.205 11.385.6.113.82-.258.82-.577 0-.285-.01-1.04-.015-2.04-3.338.724-4.042-1.61-4.042-1.61C4.422 18.07 3.633 17.7 3.633 17.7c-1.087-.744.084-.729.084-.729 1.205.084 1.838 1.236 1.838 1.236 1.07 1.835 2.809 1.305 3.495.998.108-.776.417-1.305.76-1.605-2.665-.3-5.466-1.332-5.466-5.93 0-1.31.465-2.38 1.235-3.22-.135-.303-.54-1.523.105-3.176 0 0 1.005-.322 3.3 1.23.96-.267 1.98-.399 3-.405 1.02.006 2.04.138 3 .405 2.28-1.552 3.285-1.23 3.285-1.23.645 1.653.24 2.873.12 3.176.765.84 1.23 1.91 1.23 3.22 0 4.61-2.805 5.625-5.475 5.92.42.36.81 1.096.81 2.22 0 1.606-.015 2.896-.015 3.286 0 .315.21.69.825.57C20.565 22.092 24 17.592 24 12.297c0-6.627-5.373-12-12-12" fill="#181717"/></g><text x="607" y="880" font-family="Inter, 'Segoe UI', 'Helvetica Neue', Arial, sans-serif" font-size="16.5" font-weight="650" fill="#14171C">GitHub</text><text x="607" y="900.5" font-family="'JetBrains Mono', 'Cascadia Code', Consolas, 'SFMono-Regular', monospace" font-size="12.2" fill="#586170">código</text></g><g class="node" data-id="target"><rect x="746" y="830" width="140" height="96" rx="10" fill="#FFFFFF" stroke="#CBD2DA" stroke-width="1.2"/><path d="M756,830 h-0 a10 10 0 0 0 -10 10 v76 a10 10 0 0 0 10 10" fill="none"/><rect x="746" y="840" width="3.5" height="76" rx="1.75" fill="#4B5768"/><g transform="translate(760,843) scale(0.78)" fill="none" stroke="#4B5768" stroke-width="1.9" stroke-linecap="round" stroke-linejoin="round"><circle cx="12" cy="12" r="8.5"/><path d="M3.5 12h17"/><path d="M12 3.5c2.6 2.4 3.8 5.2 3.8 8.5s-1.2 6.1-3.8 8.5c-2.6-2.4-3.8-5.2-3.8-8.5S9.4 5.9 12 3.5z"/></g><text x="784" y="856" font-family="Inter, 'Segoe UI', 'Helvetica Neue', Arial, sans-serif" font-size="10.5" font-weight="600" letter-spacing="0.7" fill="#4B5768">EXTERNO</text><text x="760" y="880" font-family="Inter, 'Segoe UI', 'Helvetica Neue', Arial, sans-serif" font-size="16.5" font-weight="650" fill="#14171C">App web</text><text x="760" y="899.5" font-family="Inter, 'Segoe UI', 'Helvetica Neue', Arial, sans-serif" font-size="16.5" font-weight="650" fill="#14171C">objetivo</text></g><g class="node" data-id="social"><rect x="899" y="830" width="141" height="96" rx="10" fill="#FFFFFF" stroke="#CBD2DA" stroke-width="1.2"/><path d="M909,830 h-0 a10 10 0 0 0 -10 10 v76 a10 10 0 0 0 10 10" fill="none"/><rect x="899" y="840" width="3.5" height="76" rx="1.75" fill="#4B5768"/><g transform="translate(913,843) scale(0.78)" fill="none" stroke="#4B5768" stroke-width="1.9" stroke-linecap="round" stroke-linejoin="round"><circle cx="6" cy="12" r="2.5"/><circle cx="18" cy="6" r="2.5"/><circle cx="18" cy="18" r="2.5"/><path d="M8.3 10.8l7.4-3.6M8.3 13.2l7.4 3.6"/></g><text x="937" y="856" font-family="Inter, 'Segoe UI', 'Helvetica Neue', Arial, sans-serif" font-size="10.5" font-weight="600" letter-spacing="0.7" fill="#4B5768">EXTERNO</text><text x="913" y="880" font-family="Inter, 'Segoe UI', 'Helvetica Neue', Arial, sans-serif" font-size="16.5" font-weight="650" fill="#14171C">Redes</text><text x="913" y="899.5" font-family="Inter, 'Segoe UI', 'Helvetica Neue', Arial, sans-serif" font-size="16.5" font-weight="650" fill="#14171C">sociales</text></g><rect x="345.4" y="406.6" width="79.1" height="66.8" rx="4" fill="#FBFAF7" fill-opacity="0.94"/><text x="385.0" y="421.8" text-anchor="middle" font-family="Inter, 'Segoe UI', 'Helvetica Neue', Arial, sans-serif" font-size="12.2"  fill="#586170">Analiza su</text><text x="385.0" y="437.0" text-anchor="middle" font-family="Inter, 'Segoe UI', 'Helvetica Neue', Arial, sans-serif" font-size="12.2"  fill="#586170">app y</text><text x="385.0" y="452.2" text-anchor="middle" font-family="Inter, 'Segoe UI', 'Helvetica Neue', Arial, sans-serif" font-size="12.2"  fill="#586170">produce</text><text x="385.0" y="467.4" text-anchor="middle" font-family="Inter, 'Segoe UI', 'Helvetica Neue', Arial, sans-serif" font-size="12.2"  fill="#586170">piezas</text><rect x="1052.2" y="219.8" width="65.7" height="36.4" rx="4" fill="#FBFAF7" fill-opacity="0.94"/><text x="1085.0" y="235.0" text-anchor="middle" font-family="Inter, 'Segoe UI', 'Helvetica Neue', Arial, sans-serif" font-size="12.2"  fill="#C2410C">Claude</text><text x="1085.0" y="250.2" text-anchor="middle" font-family="Inter, 'Segoe UI', 'Helvetica Neue', Arial, sans-serif" font-size="12.2"  fill="#C2410C">Code CLI</text><rect x="1062.2" y="340.4" width="45.5" height="21.2" rx="4" fill="#FBFAF7" fill-opacity="0.94"/><text x="1085.0" y="355.6" text-anchor="middle" font-family="Inter, 'Segoe UI', 'Helvetica Neue', Arial, sans-serif" font-size="12.2"  fill="#C2410C">Vídeo</text><rect x="1048.8" y="451.4" width="72.4" height="21.2" rx="4" fill="#FBFAF7" fill-opacity="0.94"/><text x="1085.0" y="466.6" text-anchor="middle" font-family="Inter, 'Segoe UI', 'Helvetica Neue', Arial, sans-serif" font-size="12.2"  fill="#C2410C">Cortes IA</text><rect x="1058.9" y="562.4" width="52.3" height="21.2" rx="4" fill="#FBFAF7" fill-opacity="0.94"/><text x="1085.0" y="577.6" text-anchor="middle" font-family="Inter, 'Segoe UI', 'Helvetica Neue', Arial, sans-serif" font-size="12.2"  fill="#C2410C">Avatar</text><rect x="1068.9" y="673.4" width="32.1" height="21.2" rx="4" fill="#FBFAF7" fill-opacity="0.94"/><text x="1085.0" y="688.6" text-anchor="middle" font-family="Inter, 'Segoe UI', 'Helvetica Neue', Arial, sans-serif" font-size="12.2"  fill="#C2410C">Voz</text><text x="40" y="975" font-family="Inter, 'Segoe UI', 'Helvetica Neue', Arial, sans-serif" font-size="10.5" font-weight="700" letter-spacing="0.8" fill="#586170">LEYENDA</text><line x1="40" y1="993" x2="70" y2="993" stroke="#343A46" stroke-width="1.6"  marker-end="url(#rrss-context-light-a-user)"/><text x="78" y="997" font-family="Inter, 'Segoe UI', 'Helvetica Neue', Arial, sans-serif" font-size="11.5" fill="#586170">Uso por personas</text><line x1="205.2" y1="993" x2="235.2" y2="993" stroke="#C2410C" stroke-width="1.8"  marker-end="url(#rrss-context-light-a-ai)"/><text x="243.2" y="997" font-family="Inter, 'Segoe UI', 'Helvetica Neue', Arial, sans-serif" font-size="11.5" fill="#586170">Inferencia de IA</text><line x1="370.4" y1="993" x2="400.4" y2="993" stroke="#4B5768" stroke-width="1.5"  marker-end="url(#rrss-context-light-a-api)"/><text x="408.4" y="997" font-family="Inter, 'Segoe UI', 'Helvetica Neue', Arial, sans-serif" font-size="11.5" fill="#586170">API externa (HTTPS)</text></svg>