<svg xmlns="http://www.w3.org/2000/svg" viewBox="0 0 1600 1000" width="1600" height="1000" role="img" aria-labelledby="t-chafit-slides-light d-chafit-slides-light"><title id="t-chafit-slides-light">ChaFit</title><desc id="d-chafit-slides-light">SPA única para web, iOS y Android · Supabase · IA en el servidor</desc><defs><marker id="chafit-slides-light-a-user" viewBox="0 0 10 10" refX="9" refY="5" markerWidth="8" markerHeight="8" orient="auto-start-reverse"><path d="M0,1 L9,5 L0,9 z" fill="#343A46"/></marker><marker id="chafit-slides-light-a-call" viewBox="0 0 10 10" refX="9" refY="5" markerWidth="8" markerHeight="8" orient="auto-start-reverse"><path d="M0,1 L9,5 L0,9 z" fill="#586170"/></marker><marker id="chafit-slides-light-a-api" viewBox="0 0 10 10" refX="9" refY="5" markerWidth="8" markerHeight="8" orient="auto-start-reverse"><path d="M0,1 L9,5 L0,9 z" fill="#4B5768"/></marker><marker id="chafit-slides-light-a-ai" viewBox="0 0 10 10" refX="9" refY="5" markerWidth="8" markerHeight="8" orient="auto-start-reverse"><path d="M0,1 L9,5 L0,9 z" fill="#C2410C"/></marker><marker id="chafit-slides-light-a-data" viewBox="0 0 10 10" refX="9" refY="5" markerWidth="8" markerHeight="8" orient="auto-start-reverse"><path d="M0,1 L9,5 L0,9 z" fill="#6D3FD6"/></marker><marker id="chafit-slides-light-a-auth" viewBox="0 0 10 10" refX="9" refY="5" markerWidth="8" markerHeight="8" orient="auto-start-reverse"><path d="M0,1 L9,5 L0,9 z" fill="#A15C07"/></marker><marker id="chafit-slides-light-a-async" viewBox="0 0 10 10" refX="9" refY="5" markerWidth="8" markerHeight="8" orient="auto-start-reverse"><path d="M0,1 L9,5 L0,9 z" fill="#586170"/></marker><marker id="chafit-slides-light-a-deploy" viewBox="0 0 10 10" refX="9" refY="5" markerWidth="8" markerHeight="8" orient="auto-start-reverse"><path d="M0,1 L9,5 L0,9 z" fill="#334155"/></marker><marker id="chafit-slides-light-a-local" viewBox="0 0 10 10" refX="9" refY="5" markerWidth="8" markerHeight="8" orient="auto-start-reverse"><path d="M0,1 L9,5 L0,9 z" fill="#5F6B7A"/></marker><marker id="chafit-slides-light-a-human" viewBox="0 0 10 10" refX="9" refY="5" markerWidth="8" markerHeight="8" orient="auto-start-reverse"><path d="M0,1 L9,5 L0,9 z" fill="#BE123C"/></marker></defs><rect width="1600" height="1000" fill="#FBFAF7"/><text x="40" y="52" font-family="Inter, 'Segoe UI', 'Helvetica Neue', Arial, sans-serif" font-size="24" font-weight="700" fill="#14171C">ChaFit</text><text x="40" y="78" font-family="Inter, 'Segoe UI', 'Helvetica Neue', Arial, sans-serif" font-size="14" fill="#586170">SPA única para web, iOS y Android · Supabase · IA en el servidor</text><rect x="1425.8" y="34" width="134.2" height="24" rx="12" fill="none" stroke="#D3D8DE"/><text x="1492.9" y="50" text-anchor="middle" font-family="'JetBrains Mono', 'Cascadia Code', Consolas, 'SFMono-Regular', monospace" font-size="11" fill="#586170">Vista para slides</text><text x="40" y="978" font-family="Inter, 'Segoe UI', 'Helvetica Neue', Arial, sans-serif" font-size="11.5" fill="#8A93A0">Fuente: jechamo/chafit360@d18493d · inspección 26/09/2026</text><text x="1560" y="978" text-anchor="end" font-family="Inter, 'Segoe UI', 'Helvetica Neue', Arial, sans-serif" font-size="11.5" fill="#8A93A0">TFM · Jorge Chamorro · AS-IS</text><path d="M320,390 L400,390" fill="none" stroke="#343A46" stroke-width="1.6"  marker-end="url(#chafit-slides-light-a-user)" /><path d="M550,320 L550,230" fill="none" stroke="#4B5768" stroke-width="1.5"  marker-end="url(#chafit-slides-light-a-api)" /><path d="M700,390 L800,390" fill="none" stroke="#586170" stroke-width="1.5"  marker-end="url(#chafit-slides-light-a-call)" /><path d="M550,460 L550,570" fill="none" stroke="#5F6B7A" stroke-width="1.5"  marker-end="url(#chafit-slides-light-a-local)" /><path d="M950,460 L950,570" fill="none" stroke="#586170" stroke-width="1.5"  marker-end="url(#chafit-slides-light-a-call)" /><path d="M1100,630 L1200,630" fill="none" stroke="#C2410C" stroke-width="1.8"  marker-end="url(#chafit-slides-light-a-ai)" /><path d="M950,690 L950,800" fill="none" stroke="#4B5768" stroke-width="1.5"  marker-end="url(#chafit-slides-light-a-api)" /><g class="node" data-id="users"><rect x="60" y="330" width="260" height="120" rx="10" fill="#FFFFFF" stroke="#CBD2DA" stroke-width="1.2"/><path d="M70,330 h-0 a10 10 0 0 0 -10 10 v100 a10 10 0 0 0 10 10" fill="none"/><rect x="60" y="340" width="3.5" height="100" rx="1.75" fill="#343A46"/><g transform="translate(74,343) scale(0.78)" fill="none" stroke="#343A46" stroke-width="1.9" stroke-linecap="round" stroke-linejoin="round"><circle cx="12" cy="8" r="4"/><path d="M4 21c0-4.4 3.6-8 8-8s8 3.6 8 8"/></g><text x="98" y="356" font-family="Inter, 'Segoe UI', 'Helvetica Neue', Arial, sans-serif" font-size="10.5" font-weight="600" letter-spacing="0.7" fill="#343A46">PERSONA</text><text x="74" y="380" font-family="Inter, 'Segoe UI', 'Helvetica Neue', Arial, sans-serif" font-size="20" font-weight="650" fill="#14171C">Usuarios</text><text x="74" y="404" font-family="'JetBrains Mono', 'Cascadia Code', Consolas, 'SFMono-Regular', monospace" font-size="12.2" fill="#586170">clientes · entrenadores ·</text><text x="74" y="420" font-family="'JetBrains Mono', 'Cascadia Code', Consolas, 'SFMono-Regular', monospace" font-size="12.2" fill="#586170">gimnasios</text></g><g class="node" data-id="mapbox"><rect x="400" y="130" width="300" height="100" rx="10" fill="#FFFFFF" stroke="#CBD2DA" stroke-width="1.2"/><path d="M410,130 h-0 a10 10 0 0 0 -10 10 v80 a10 10 0 0 0 10 10" fill="none"/><rect x="400" y="140" width="3.5" height="80" rx="1.75" fill="#4B5768"/><g transform="translate(414,143) scale(0.78)" fill="none" stroke="#4B5768" stroke-width="1.9" stroke-linecap="round" stroke-linejoin="round"><path d="M12 21s-6.5-5.6-6.5-11a6.5 6.5 0 0 1 13 0c0 5.4-6.5 11-6.5 11z"/><circle cx="12" cy="10" r="2.3"/></g><text x="438" y="156" font-family="Inter, 'Segoe UI', 'Helvetica Neue', Arial, sans-serif" font-size="10.5" font-weight="600" letter-spacing="0.7" fill="#4B5768">MAPAS</text><text x="414" y="180" font-family="Inter, 'Segoe UI', 'Helvetica Neue', Arial, sans-serif" font-size="19" font-weight="650" fill="#14171C">Mapbox · Sentry · n8n</text><text x="414" y="203" font-family="'JetBrains Mono', 'Cascadia Code', Consolas, 'SFMono-Regular', monospace" font-size="12.2" fill="#586170">mapas · errores · altas</text></g><g class="node" data-id="spa"><rect x="400" y="320" width="300" height="140" rx="10" fill="#FFFFFF" stroke="#CBD2DA" stroke-width="1.2"/><path d="M410,320 h-0 a10 10 0 0 0 -10 10 v120 a10 10 0 0 0 10 10" fill="none"/><rect x="400" y="330" width="3.5" height="120" rx="1.75" fill="#2458D3"/><g transform="translate(414,333) scale(0.78)" fill="none" stroke="#2458D3" stroke-width="1.9" stroke-linecap="round" stroke-linejoin="round"><rect x="3" y="4" width="18" height="16" rx="2"/><path d="M3 9h18"/><path d="M6.5 6.5h.01M9 6.5h.01"/></g><text x="438" y="346" font-family="Inter, 'Segoe UI', 'Helvetica Neue', Arial, sans-serif" font-size="10.5" font-weight="600" letter-spacing="0.7" fill="#2458D3">CONTENEDOR · SPA</text><g transform="translate(670,332) scale(0.6667)"><path d="M14.23 12.004a2.236 2.236 0 0 1-2.235 2.236 2.236 2.236 0 0 1-2.236-2.236 2.236 2.236 0 0 1 2.235-2.236 2.236 2.236 0 0 1 2.236 2.236zm2.648-10.69c-1.346 0-3.107.96-4.888 2.622-1.78-1.653-3.542-2.602-4.887-2.602-.41 0-.783.093-1.106.278-1.375.793-1.683 3.264-.973 6.365C1.98 8.917 0 10.42 0 12.004c0 1.59 1.99 3.097 5.043 4.03-.704 3.113-.39 5.588.988 6.38.32.187.69.275 1.102.275 1.345 0 3.107-.96 4.888-2.624 1.78 1.654 3.542 2.603 4.887 2.603.41 0 .783-.09 1.106-.275 1.374-.792 1.683-3.263.973-6.365C22.02 15.096 24 13.59 24 12.004c0-1.59-1.99-3.097-5.043-4.032.704-3.11.39-5.587-.988-6.38-.318-.184-.688-.277-1.092-.278zm-.005 1.09v.006c.225 0 .406.044.558.127.666.382.955 1.835.73 3.704-.054.46-.142.945-.25 1.44-.96-.236-2.006-.417-3.107-.534-.66-.905-1.345-1.727-2.035-2.447 1.592-1.48 3.087-2.292 4.105-2.295zm-9.77.02c1.012 0 2.514.808 4.11 2.28-.686.72-1.37 1.537-2.02 2.442-1.107.117-2.154.298-3.113.538-.112-.49-.195-.964-.254-1.42-.23-1.868.054-3.32.714-3.707.19-.09.4-.127.563-.132zm4.882 3.05c.455.468.91.992 1.36 1.564-.44-.02-.89-.034-1.345-.034-.46 0-.915.01-1.36.034.44-.572.895-1.096 1.345-1.565zM12 8.1c.74 0 1.477.034 2.202.093.406.582.802 1.203 1.183 1.86.372.64.71 1.29 1.018 1.946-.308.655-.646 1.31-1.013 1.95-.38.66-.773 1.288-1.18 1.87-.728.063-1.466.098-2.21.098-.74 0-1.477-.035-2.202-.093-.406-.582-.802-1.204-1.183-1.86-.372-.64-.71-1.29-1.018-1.946.303-.657.646-1.313 1.013-1.954.38-.66.773-1.286 1.18-1.868.728-.064 1.466-.098 2.21-.098zm-3.635.254c-.24.377-.48.763-.704 1.16-.225.39-.435.782-.635 1.174-.265-.656-.49-1.31-.676-1.947.64-.15 1.315-.283 2.015-.386zm7.26 0c.695.103 1.365.23 2.006.387-.18.632-.405 1.282-.66 1.933-.2-.39-.41-.783-.64-1.174-.225-.392-.465-.774-.705-1.146zm3.063.675c.484.15.944.317 1.375.498 1.732.74 2.852 1.708 2.852 2.476-.005.768-1.125 1.74-2.857 2.475-.42.18-.88.342-1.355.493-.28-.958-.646-1.956-1.1-2.98.45-1.017.81-2.01 1.085-2.964zm-13.395.004c.278.96.645 1.957 1.1 2.98-.45 1.017-.812 2.01-1.086 2.964-.484-.15-.944-.318-1.37-.5-1.732-.737-2.852-1.706-2.852-2.474 0-.768 1.12-1.742 2.852-2.476.42-.18.88-.342 1.356-.494zm11.678 4.28c.265.657.49 1.312.676 1.948-.64.157-1.316.29-2.016.39.24-.375.48-.762.705-1.158.225-.39.435-.788.636-1.18zm-9.945.02c.2.392.41.783.64 1.175.23.39.465.772.705 1.143-.695-.102-1.365-.23-2.006-.386.18-.63.406-1.282.66-1.933zM17.92 16.32c.112.493.2.968.254 1.423.23 1.868-.054 3.32-.714 3.708-.147.09-.338.128-.563.128-1.012 0-2.514-.807-4.11-2.28.686-.72 1.37-1.536 2.02-2.44 1.107-.118 2.154-.3 3.113-.54zm-11.83.01c.96.234 2.006.415 3.107.532.66.905 1.345 1.727 2.035 2.446-1.595 1.483-3.092 2.295-4.11 2.295-.22-.005-.406-.05-.553-.132-.666-.38-.955-1.834-.73-3.703.054-.46.142-.944.25-1.438zm4.56.64c.44.02.89.034 1.345.034.46 0 .915-.01 1.36-.034-.44.572-.895 1.095-1.345 1.565-.455-.47-.91-.993-1.36-1.565z" fill="#61DAFB"/></g><text x="414" y="370" font-family="Inter, 'Segoe UI', 'Helvetica Neue', Arial, sans-serif" font-size="20" font-weight="650" fill="#14171C">Cliente web y móvil</text><text x="414" y="394" font-family="'JetBrains Mono', 'Cascadia Code', Consolas, 'SFMono-Regular', monospace" font-size="12.2" fill="#586170">React 18 · Vite · TypeScript ·</text><text x="414" y="410" font-family="'JetBrains Mono', 'Cascadia Code', Consolas, 'SFMono-Regular', monospace" font-size="12.2" fill="#586170">shadcn/ui · PWA · Capacitor 8</text></g><g class="node" data-id="gw"><rect x="800" y="320" width="300" height="140" rx="10" fill="#FFFFFF" stroke="#CBD2DA" stroke-width="1.2"/><path d="M810,320 h-0 a10 10 0 0 0 -10 10 v120 a10 10 0 0 0 10 10" fill="none"/><rect x="800" y="330" width="3.5" height="120" rx="1.75" fill="#0F766E"/><g transform="translate(814,333) scale(0.78)" fill="none" stroke="#0F766E" stroke-width="1.9" stroke-linecap="round" stroke-linejoin="round"><path d="M4 12h16"/><path d="M14 6l6 6-6 6"/><path d="M4 6v12"/></g><text x="838" y="346" font-family="Inter, 'Segoe UI', 'Helvetica Neue', Arial, sans-serif" font-size="10.5" font-weight="600" letter-spacing="0.7" fill="#0F766E">PASARELA SUPABASE</text><g transform="translate(1070,332) scale(0.6667)"><path d="M11.9 1.036c-.015-.986-1.26-1.41-1.874-.637L.764 12.05C-.33 13.427.65 15.455 2.409 15.455h9.579l.113 7.51c.014.985 1.259 1.408 1.873.636l9.262-11.653c1.093-1.375.113-3.403-1.645-3.403h-9.642z" fill="#3FCF8E"/></g><text x="814" y="370" font-family="Inter, 'Segoe UI', 'Helvetica Neue', Arial, sans-serif" font-size="20" font-weight="650" fill="#14171C">Supabase</text><text x="814" y="394" font-family="'JetBrains Mono', 'Cascadia Code', Consolas, 'SFMono-Regular', monospace" font-size="12.2" fill="#586170">Auth · Postgres 17 + RLS · Storage ·</text><text x="814" y="410" font-family="'JetBrains Mono', 'Cascadia Code', Consolas, 'SFMono-Regular', monospace" font-size="12.2" fill="#586170">Realtime</text></g><g class="node" data-id="native"><rect x="400" y="570" width="300" height="120" rx="10" fill="#FFFFFF" stroke="#CBD2DA" stroke-width="1.2"/><path d="M410,570 h-0 a10 10 0 0 0 -10 10 v100 a10 10 0 0 0 10 10" fill="none"/><rect x="400" y="580" width="3.5" height="100" rx="1.75" fill="#2458D3"/><g transform="translate(414,583) scale(0.78)" fill="none" stroke="#2458D3" stroke-width="1.9" stroke-linecap="round" stroke-linejoin="round"><rect x="6" y="6" width="12" height="12" rx="2"/><path d="M9 2v4M15 2v4M9 18v4M15 18v4M2 9h4M2 15h4M18 9h4M18 15h4"/></g><text x="438" y="596" font-family="Inter, 'Segoe UI', 'Helvetica Neue', Arial, sans-serif" font-size="10.5" font-weight="600" letter-spacing="0.7" fill="#2458D3">PLUGINS NATIVOS</text><text x="414" y="620" font-family="Inter, 'Segoe UI', 'Helvetica Neue', Arial, sans-serif" font-size="19" font-weight="650" fill="#14171C">APIs del dispositivo</text><text x="414" y="643" font-family="'JetBrains Mono', 'Cascadia Code', Consolas, 'SFMono-Regular', monospace" font-size="12.2" fill="#586170">HealthKit / Health Connect ·</text><text x="414" y="659" font-family="'JetBrains Mono', 'Cascadia Code', Consolas, 'SFMono-Regular', monospace" font-size="12.2" fill="#586170">biometría · notificaciones · archivos</text></g><g class="node" data-id="edge"><rect x="800" y="570" width="300" height="120" rx="10" fill="#FFFFFF" stroke="#CBD2DA" stroke-width="1.2"/><path d="M810,570 h-0 a10 10 0 0 0 -10 10 v100 a10 10 0 0 0 10 10" fill="none"/><rect x="800" y="580" width="3.5" height="100" rx="1.75" fill="#0F766E"/><g transform="translate(814,583) scale(0.78)" fill="none" stroke="#0F766E" stroke-width="1.9" stroke-linecap="round" stroke-linejoin="round"><path d="M12 2.5l8.5 4.9v9.2L12 21.5l-8.5-4.9V7.4z"/><path d="M9.5 8.5l5 7M12.3 12.2L9.5 15.5"/></g><text x="838" y="596" font-family="Inter, 'Segoe UI', 'Helvetica Neue', Arial, sans-serif" font-size="10.5" font-weight="600" letter-spacing="0.7" fill="#0F766E">SERVERLESS · 28</text><text x="814" y="620" font-family="Inter, 'Segoe UI', 'Helvetica Neue', Arial, sans-serif" font-size="20" font-weight="650" fill="#14171C">Edge Functions</text><text x="814" y="644" font-family="'JetBrains Mono', 'Cascadia Code', Consolas, 'SFMono-Regular', monospace" font-size="12.2" fill="#586170">Deno · TypeScript · IA, pagos, email,</text><text x="814" y="660" font-family="'JetBrains Mono', 'Cascadia Code', Consolas, 'SFMono-Regular', monospace" font-size="12.2" fill="#586170">miniaturas</text></g><g class="node" data-id="openai"><rect x="1200" y="570" width="330" height="120" rx="10" fill="#FFFFFF" stroke="#CBD2DA" stroke-width="1.2"/><path d="M1210,570 h-0 a10 10 0 0 0 -10 10 v100 a10 10 0 0 0 10 10" fill="none"/><rect x="1200" y="580" width="3.5" height="100" rx="1.75" fill="#C2410C"/><g transform="translate(1214,583) scale(0.78)" fill="none" stroke="#C2410C" stroke-width="1.9" stroke-linecap="round" stroke-linejoin="round"><path d="M12 2.8l2.1 6 6.1 2.2-6.1 2.2-2.1 6-2.1-6L3.8 11l6.1-2.2z"/><path d="M19 3.5v3M17.5 5h3"/></g><text x="1238" y="596" font-family="Inter, 'Segoe UI', 'Helvetica Neue', Arial, sans-serif" font-size="10.5" font-weight="600" letter-spacing="0.7" fill="#C2410C">PROVEEDOR DE IA</text><g transform="translate(1500,582) scale(0.8000)"><path d="M11.248 18.25q-.825 0-1.568-.314a4.3 4.3 0 0 1-1.32-.874 4 4 0 0 1-1.304.214 4 4 0 0 1-2.046-.544 4.27 4.27 0 0 1-1.518-1.485 4 4 0 0 1-.56-2.095q0-.48.131-1.04A4.4 4.4 0 0 1 2.04 10.71a4.07 4.07 0 0 1 .017-3.4 4.2 4.2 0 0 1 1.056-1.418 3.8 3.8 0 0 1 1.6-.842 3.9 3.9 0 0 1 .76-1.683q.593-.759 1.451-1.188a4.04 4.04 0 0 1 1.832-.429q.825 0 1.567.313.742.314 1.32.875a4 4 0 0 1 1.304-.215q1.106 0 2.046.545a4.14 4.14 0 0 1 1.501 1.485q.578.941.578 2.095 0 .48-.132 1.04.66.61 1.023 1.419.363.792.363 1.666 0 .892-.38 1.717a4.3 4.3 0 0 1-1.072 1.435 3.8 3.8 0 0 1-1.584.825 3.8 3.8 0 0 1-.775 1.683 4.06 4.06 0 0 1-1.436 1.188 4.04 4.04 0 0 1-1.832.429m-4.076-2.062q.825 0 1.435-.347l3.103-1.782a.36.36 0 0 0 .164-.313v-1.42L7.881 14.62a.67.67 0 0 1-.726 0l-3.118-1.798a.5.5 0 0 1-.017.115v.198q0 .841.396 1.551.413.693 1.139 1.089a3.2 3.2 0 0 0 1.617.412m.165-2.69a.4.4 0 0 0 .181.05q.083 0 .165-.05l1.238-.71-3.977-2.31a.7.7 0 0 1-.363-.643v-3.58q-.825.362-1.32 1.122a2.9 2.9 0 0 0-.495 1.65q0 .809.413 1.55.412.743 1.072 1.123zm3.91 3.663q.875 0 1.585-.396a2.96 2.96 0 0 0 1.534-2.64v-3.564a.32.32 0 0 0-.165-.297l-1.254-.726v4.604a.7.7 0 0 1-.363.643l-3.119 1.799a3 3 0 0 0 1.783.577m.627-6.039V8.878L10.01 7.822 8.129 8.878v2.244l1.881 1.056zM7.057 5.859a.7.7 0 0 1 .363-.644l3.119-1.798a3 3 0 0 0-1.782-.578q-.874 0-1.584.396A2.96 2.96 0 0 0 6.05 4.324a3.07 3.07 0 0 0-.396 1.551v3.547q0 .199.165.314l1.237.726zm8.383 7.887q.825-.364 1.303-1.123.495-.758.495-1.65a3.15 3.15 0 0 0-.412-1.55q-.413-.743-1.073-1.123l-3.086-1.782q-.099-.065-.181-.049a.3.3 0 0 0-.165.05l-1.238.692 3.993 2.327a.6.6 0 0 1 .264.264.64.64 0 0 1 .1.363zm-3.317-8.382a.63.63 0 0 1 .726 0l3.135 1.831v-.297q0-.792-.396-1.501a2.86 2.86 0 0 0-1.105-1.155q-.71-.43-1.65-.43-.825 0-1.436.347L8.294 5.941a.36.36 0 0 0-.165.314v1.418z" fill="#000000"/></g><text x="1214" y="620" font-family="Inter, 'Segoe UI', 'Helvetica Neue', Arial, sans-serif" font-size="20" font-weight="650" fill="#14171C">OpenAI API</text><text x="1214" y="644" font-family="'JetBrains Mono', 'Cascadia Code', Consolas, 'SFMono-Regular', monospace" font-size="12.2" fill="#586170">chat · visión · images · edits · Whisper</text><text x="1214" y="660" font-family="'JetBrains Mono', 'Cascadia Code', Consolas, 'SFMono-Regular', monospace" font-size="12.2" fill="#586170">· Assistants</text></g><g class="node" data-id="stripe"><rect x="800" y="800" width="300" height="120" rx="10" fill="#FFFFFF" stroke="#CBD2DA" stroke-width="1.2"/><path d="M810,800 h-0 a10 10 0 0 0 -10 10 v100 a10 10 0 0 0 10 10" fill="none"/><rect x="800" y="810" width="3.5" height="100" rx="1.75" fill="#4B5768"/><g transform="translate(814,813) scale(0.78)" fill="none" stroke="#4B5768" stroke-width="1.9" stroke-linecap="round" stroke-linejoin="round"><rect x="3" y="5.5" width="18" height="13" rx="2"/><path d="M3 10h18M7 15h3"/></g><text x="838" y="826" font-family="Inter, 'Segoe UI', 'Helvetica Neue', Arial, sans-serif" font-size="10.5" font-weight="600" letter-spacing="0.7" fill="#4B5768">PAGOS</text><text x="814" y="850" font-family="Inter, 'Segoe UI', 'Helvetica Neue', Arial, sans-serif" font-size="20" font-weight="650" fill="#14171C">Stripe · Resend</text><text x="814" y="874" font-family="'JetBrains Mono', 'Cascadia Code', Consolas, 'SFMono-Regular', monospace" font-size="12.2" fill="#586170">suscripciones · email</text></g><rect x="733.9" y="379.4" width="32.1" height="21.2" rx="4" fill="#FBFAF7" fill-opacity="0.94"/><text x="750.0" y="394.6" text-anchor="middle" font-family="Inter, 'Segoe UI', 'Helvetica Neue', Arial, sans-serif" font-size="12.2"  fill="#586170">JWT</text><rect x="1093.7" y="611.8" width="112.7" height="36.4" rx="4" fill="#FBFAF7" fill-opacity="0.94"/><text x="1150.0" y="627.0" text-anchor="middle" font-family="Inter, 'Segoe UI', 'Helvetica Neue', Arial, sans-serif" font-size="12.2"  fill="#C2410C">12</text><text x="1150.0" y="642.2" text-anchor="middle" font-family="Inter, 'Segoe UI', 'Helvetica Neue', Arial, sans-serif" font-size="12.2"  fill="#C2410C">funcionalidades</text></svg>