<svg xmlns="http://www.w3.org/2000/svg" viewBox="0 0 1700 1080" width="1700" height="1080" role="img" aria-labelledby="t-chafit-integrations-light d-chafit-integrations-light"><title id="t-chafit-integrations-light">ChaFit · integraciones externas</title><desc id="d-chafit-integrations-light">Qué servicio de terceros interviene, desde dónde se llama y con qué credencial</desc><defs><marker id="chafit-integrations-light-a-user" viewBox="0 0 10 10" refX="9" refY="5" markerWidth="8" markerHeight="8" orient="auto-start-reverse"><path d="M0,1 L9,5 L0,9 z" fill="#343A46"/></marker><marker id="chafit-integrations-light-a-call" viewBox="0 0 10 10" refX="9" refY="5" markerWidth="8" markerHeight="8" orient="auto-start-reverse"><path d="M0,1 L9,5 L0,9 z" fill="#586170"/></marker><marker id="chafit-integrations-light-a-api" viewBox="0 0 10 10" refX="9" refY="5" markerWidth="8" markerHeight="8" orient="auto-start-reverse"><path d="M0,1 L9,5 L0,9 z" fill="#4B5768"/></marker><marker id="chafit-integrations-light-a-ai" viewBox="0 0 10 10" refX="9" refY="5" markerWidth="8" markerHeight="8" orient="auto-start-reverse"><path d="M0,1 L9,5 L0,9 z" fill="#C2410C"/></marker><marker id="chafit-integrations-light-a-data" viewBox="0 0 10 10" refX="9" refY="5" markerWidth="8" markerHeight="8" orient="auto-start-reverse"><path d="M0,1 L9,5 L0,9 z" fill="#6D3FD6"/></marker><marker id="chafit-integrations-light-a-auth" viewBox="0 0 10 10" refX="9" refY="5" markerWidth="8" markerHeight="8" orient="auto-start-reverse"><path d="M0,1 L9,5 L0,9 z" fill="#A15C07"/></marker><marker id="chafit-integrations-light-a-async" viewBox="0 0 10 10" refX="9" refY="5" markerWidth="8" markerHeight="8" orient="auto-start-reverse"><path d="M0,1 L9,5 L0,9 z" fill="#586170"/></marker><marker id="chafit-integrations-light-a-deploy" viewBox="0 0 10 10" refX="9" refY="5" markerWidth="8" markerHeight="8" orient="auto-start-reverse"><path d="M0,1 L9,5 L0,9 z" fill="#334155"/></marker><marker id="chafit-integrations-light-a-local" viewBox="0 0 10 10" refX="9" refY="5" markerWidth="8" markerHeight="8" orient="auto-start-reverse"><path d="M0,1 L9,5 L0,9 z" fill="#5F6B7A"/></marker><marker id="chafit-integrations-light-a-human" viewBox="0 0 10 10" refX="9" refY="5" markerWidth="8" markerHeight="8" orient="auto-start-reverse"><path d="M0,1 L9,5 L0,9 z" fill="#BE123C"/></marker></defs><rect width="1700" height="1080" fill="#FBFAF7"/><text x="40" y="52" font-family="Inter, 'Segoe UI', 'Helvetica Neue', Arial, sans-serif" font-size="24" font-weight="700" fill="#14171C">ChaFit · integraciones externas</text><text x="40" y="78" font-family="Inter, 'Segoe UI', 'Helvetica Neue', Arial, sans-serif" font-size="14" fill="#586170">Qué servicio de terceros interviene, desde dónde se llama y con qué credencial</text><rect x="1499.4" y="34" width="160.6" height="24" rx="12" fill="none" stroke="#D3D8DE"/><text x="1579.7" y="50" text-anchor="middle" font-family="'JetBrains Mono', 'Cascadia Code', Consolas, 'SFMono-Regular', monospace" font-size="11" fill="#586170">Integraciones · AS-IS</text><text x="40" y="1058" font-family="Inter, 'Segoe UI', 'Helvetica Neue', Arial, sans-serif" font-size="11.5" fill="#8A93A0">Fuente: jechamo/chafit360@d18493d · inspección 26/09/2026</text><text x="1660" y="1058" text-anchor="end" font-family="Inter, 'Segoe UI', 'Helvetica Neue', Arial, sans-serif" font-size="11.5" fill="#8A93A0">TFM · Jorge Chamorro · AS-IS</text><rect x="38" y="148" width="344" height="624" rx="14" fill="rgba(15,118,110,0.045)" stroke="#8FB8B2" stroke-width="1.2" /><text x="54" y="170" font-family="Inter, 'Segoe UI', 'Helvetica Neue', Arial, sans-serif" font-size="11" font-weight="700" letter-spacing="0.9" fill="#586170">INFRAESTRUCTURA Y OPERACIÓN</text><rect x="1298" y="148" width="364" height="174" rx="14" fill="rgba(194,65,12,0.045)" stroke="#DDB199" stroke-width="1.2" stroke-dasharray="6 5"/><text x="1314" y="170" font-family="Inter, 'Segoe UI', 'Helvetica Neue', Arial, sans-serif" font-size="11" font-weight="700" letter-spacing="0.9" fill="#586170">IA EXTERNA</text><rect x="1298" y="348" width="364" height="524" rx="14" fill="rgba(75,87,104,0.035)" stroke="#A7B0BC" stroke-width="1.2" stroke-dasharray="6 5"/><text x="1314" y="370" font-family="Inter, 'Segoe UI', 'Helvetica Neue', Arial, sans-serif" font-size="11" font-weight="700" letter-spacing="0.9" fill="#586170">APIS EXTERNAS</text><path d="M640,245 L360,245" fill="none" stroke="#586170" stroke-width="1.5"  marker-end="url(#chafit-integrations-light-a-call)" /><path d="M360,400 L640,400" fill="none" stroke="#334155" stroke-width="1.6" stroke-dasharray="2 4" marker-end="url(#chafit-integrations-light-a-deploy)" /><path d="M640,550 L360,550" fill="none" stroke="#586170" stroke-width="1.5" stroke-dasharray="6 4" marker-end="url(#chafit-integrations-light-a-async)" /><path d="M360,700 L640,700" fill="none" stroke="#334155" stroke-width="1.6" stroke-dasharray="2 4" marker-end="url(#chafit-integrations-light-a-deploy)" /><path d="M1040,245 L1320,245" fill="none" stroke="#C2410C" stroke-width="1.8"  marker-end="url(#chafit-integrations-light-a-ai)" /><path d="M1040,440 L1320,440" fill="none" stroke="#4B5768" stroke-width="1.5"  marker-end="url(#chafit-integrations-light-a-api)" /><path d="M1040,560 L1320,560" fill="none" stroke="#4B5768" stroke-width="1.5"  marker-end="url(#chafit-integrations-light-a-api)" /><path d="M1040,680 L1320,680" fill="none" stroke="#4B5768" stroke-width="1.5"  marker-end="url(#chafit-integrations-light-a-api)" /><path d="M1040,800 L1320,800" fill="none" stroke="#586170" stroke-width="1.5" stroke-dasharray="6 4" marker-end="url(#chafit-integrations-light-a-async)" /><path d="M840,870 L840,905" fill="none" stroke="#5F6B7A" stroke-width="1.5"  marker-end="url(#chafit-integrations-light-a-local)" /><g class="node" data-id="chafit-hub"><rect x="640" y="170" width="400" height="700" rx="10" fill="#FFFFFF" stroke="#CBD2DA" stroke-width="1.2"/><path d="M650,170 h-0 a10 10 0 0 0 -10 10 v680 a10 10 0 0 0 10 10" fill="none"/><rect x="640" y="180" width="3.5" height="680" rx="1.75" fill="#2458D3"/><g transform="translate(654,183) scale(0.78)" fill="none" stroke="#2458D3" stroke-width="1.9" stroke-linecap="round" stroke-linejoin="round"><path d="M12 3l8 4.5v9L12 21l-8-4.5v-9z"/><path d="M4 7.5l8 4.5 8-4.5M12 12v9"/></g><text x="678" y="196" font-family="Inter, 'Segoe UI', 'Helvetica Neue', Arial, sans-serif" font-size="10.5" font-weight="600" letter-spacing="0.7" fill="#2458D3">PRODUCTO</text><text x="654" y="220" font-family="Inter, 'Segoe UI', 'Helvetica Neue', Arial, sans-serif" font-size="16.5" font-weight="650" fill="#14171C">ChaFit</text><text x="654" y="240.5" font-family="'JetBrains Mono', 'Cascadia Code', Consolas, 'SFMono-Regular', monospace" font-size="12.2" fill="#586170">cliente web/móvil + Edge Functions</text><line x1="654" y1="306" x2="1026" y2="306" stroke="#D3D8DE"/><circle cx="658" cy="316" r="2.2" fill="#2458D3"/><text x="668" y="320" font-family="'JetBrains Mono', 'Cascadia Code', Consolas, 'SFMono-Regular', monospace" font-size="12" fill="#14171C">Cliente (navegador · WebView)</text><text x="668" y="335" font-family="Inter, 'Segoe UI', 'Helvetica Neue', Arial, sans-serif" font-size="11.5" fill="#586170">llama a Supabase, Mapbox, Sentry y n8n</text><circle cx="658" cy="378" r="2.2" fill="#2458D3"/><text x="668" y="382" font-family="'JetBrains Mono', 'Cascadia Code', Consolas, 'SFMono-Regular', monospace" font-size="12" fill="#14171C">Edge Functions (servidor)</text><text x="668" y="397" font-family="Inter, 'Segoe UI', 'Helvetica Neue', Arial, sans-serif" font-size="11.5" fill="#586170">guardan las claves de OpenAI, Stripe y Resend</text><circle cx="658" cy="440" r="2.2" fill="#2458D3"/><text x="668" y="444" font-family="'JetBrains Mono', 'Cascadia Code', Consolas, 'SFMono-Regular', monospace" font-size="12" fill="#14171C">Plugins nativos</text><text x="668" y="459" font-family="Inter, 'Segoe UI', 'Helvetica Neue', Arial, sans-serif" font-size="11.5" fill="#586170">leen actividad de salud y biometría</text></g><g class="node" data-id="gw"><rect x="60" y="190" width="300" height="110" rx="10" fill="#FFFFFF" stroke="#CBD2DA" stroke-width="1.2"/><path d="M70,190 h-0 a10 10 0 0 0 -10 10 v90 a10 10 0 0 0 10 10" fill="none"/><rect x="60" y="200" width="3.5" height="90" rx="1.75" fill="#0F766E"/><g transform="translate(74,203) scale(0.78)" fill="none" stroke="#0F766E" stroke-width="1.9" stroke-linecap="round" stroke-linejoin="round"><path d="M4 12h16"/><path d="M14 6l6 6-6 6"/><path d="M4 6v12"/></g><text x="98" y="216" font-family="Inter, 'Segoe UI', 'Helvetica Neue', Arial, sans-serif" font-size="10.5" font-weight="600" letter-spacing="0.7" fill="#0F766E">PLATAFORMA (BAAS)</text><g transform="translate(330,202) scale(0.6667)"><path d="M11.9 1.036c-.015-.986-1.26-1.41-1.874-.637L.764 12.05C-.33 13.427.65 15.455 2.409 15.455h9.579l.113 7.51c.014.985 1.259 1.408 1.873.636l9.262-11.653c1.093-1.375.113-3.403-1.645-3.403h-9.642z" fill="#3FCF8E"/></g><text x="74" y="240" font-family="Inter, 'Segoe UI', 'Helvetica Neue', Arial, sans-serif" font-size="16.5" font-weight="650" fill="#14171C">Supabase</text><text x="74" y="260.5" font-family="'JetBrains Mono', 'Cascadia Code', Consolas, 'SFMono-Regular', monospace" font-size="12.2" fill="#586170">Auth · Postgres · Storage · Realtime</text><text x="74" y="276.5" font-family="'JetBrains Mono', 'Cascadia Code', Consolas, 'SFMono-Regular', monospace" font-size="12.2" fill="#586170">· Edge</text></g><g class="node" data-id="vercel"><rect x="60" y="350" width="300" height="100" rx="10" fill="#FFFFFF" stroke="#CBD2DA" stroke-width="1.2"/><path d="M70,350 h-0 a10 10 0 0 0 -10 10 v80 a10 10 0 0 0 10 10" fill="none"/><rect x="60" y="360" width="3.5" height="80" rx="1.75" fill="#334155"/><g transform="translate(74,363) scale(0.78)" fill="none" stroke="#334155" stroke-width="1.9" stroke-linecap="round" stroke-linejoin="round"><path d="M7 18.5h10.5a4 4 0 0 0 .6-7.95A6 6 0 0 0 6.6 9.1 4.7 4.7 0 0 0 7 18.5z"/></g><text x="98" y="376" font-family="Inter, 'Segoe UI', 'Helvetica Neue', Arial, sans-serif" font-size="10.5" font-weight="600" letter-spacing="0.7" fill="#334155">HOSTING</text><g transform="translate(330,362) scale(0.6667)"><path d="m12 1.608 12 20.784H0Z" fill="#000000"/></g><text x="74" y="400" font-family="Inter, 'Segoe UI', 'Helvetica Neue', Arial, sans-serif" font-size="16.5" font-weight="650" fill="#14171C">Vercel</text><text x="74" y="420.5" font-family="'JetBrains Mono', 'Cascadia Code', Consolas, 'SFMono-Regular', monospace" font-size="12.2" fill="#586170">hosting estático · CDN · Preview →</text><text x="74" y="436.5" font-family="'JetBrains Mono', 'Cascadia Code', Consolas, 'SFMono-Regular', monospace" font-size="12.2" fill="#586170">Producción</text></g><g class="node" data-id="sentry"><rect x="60" y="500" width="300" height="100" rx="10" fill="#FFFFFF" stroke="#CBD2DA" stroke-width="1.2"/><path d="M70,500 h-0 a10 10 0 0 0 -10 10 v80 a10 10 0 0 0 10 10" fill="none"/><rect x="60" y="510" width="3.5" height="80" rx="1.75" fill="#4B5768"/><g transform="translate(74,513) scale(0.78)" fill="none" stroke="#4B5768" stroke-width="1.9" stroke-linecap="round" stroke-linejoin="round"><path d="M3 12h4l2.5-6.5 5 13 2.5-6.5h4"/></g><text x="98" y="526" font-family="Inter, 'Segoe UI', 'Helvetica Neue', Arial, sans-serif" font-size="10.5" font-weight="600" letter-spacing="0.7" fill="#4B5768">OBSERVABILIDAD</text><g transform="translate(330,512) scale(0.6667)"><path d="M13.91 2.505c-.873-1.448-2.972-1.448-3.844 0L6.904 7.92a15.478 15.478 0 0 1 8.53 12.811h-2.221A13.301 13.301 0 0 0 5.784 9.814l-2.926 5.06a7.65 7.65 0 0 1 4.435 5.848H2.194a.365.365 0 0 1-.298-.534l1.413-2.402a5.16 5.16 0 0 0-1.614-.913L.296 19.275a2.182 2.182 0 0 0 .812 2.999 2.24 2.24 0 0 0 1.086.288h6.983a9.322 9.322 0 0 0-3.845-8.318l1.11-1.922a11.47 11.47 0 0 1 4.95 10.24h5.915a17.242 17.242 0 0 0-7.885-15.28l2.244-3.845a.37.37 0 0 1 .504-.13c.255.14 9.75 16.708 9.928 16.9a.365.365 0 0 1-.327.543h-2.287c.029.612.029 1.223 0 1.831h2.297a2.206 2.206 0 0 0 1.922-3.31z" fill="#362D59"/></g><text x="74" y="550" font-family="Inter, 'Segoe UI', 'Helvetica Neue', Arial, sans-serif" font-size="16.5" font-weight="650" fill="#14171C">Sentry</text><text x="74" y="570.5" font-family="'JetBrains Mono', 'Cascadia Code', Consolas, 'SFMono-Regular', monospace" font-size="12.2" fill="#586170">errores saneados · Replay con</text><text x="74" y="586.5" font-family="'JetBrains Mono', 'Cascadia Code', Consolas, 'SFMono-Regular', monospace" font-size="12.2" fill="#586170">consentimiento</text></g><g class="node" data-id="stores"><rect x="60" y="650" width="300" height="100" rx="10" fill="#FFFFFF" stroke="#CBD2DA" stroke-width="1.2"/><path d="M70,650 h-0 a10 10 0 0 0 -10 10 v80 a10 10 0 0 0 10 10" fill="none"/><rect x="60" y="660" width="3.5" height="80" rx="1.75" fill="#334155"/><g transform="translate(74,663) scale(0.78)" fill="none" stroke="#334155" stroke-width="1.9" stroke-linecap="round" stroke-linejoin="round"><path d="M5 8h14l-1.2 12.5H6.2z"/><path d="M9 8V6.5a3 3 0 0 1 6 0V8"/></g><text x="98" y="676" font-family="Inter, 'Segoe UI', 'Helvetica Neue', Arial, sans-serif" font-size="10.5" font-weight="600" letter-spacing="0.7" fill="#334155">DISTRIBUCIÓN</text><text x="74" y="700" font-family="Inter, 'Segoe UI', 'Helvetica Neue', Arial, sans-serif" font-size="16.5" font-weight="650" fill="#14171C">App Store y Google Play</text><text x="74" y="720.5" font-family="'JetBrains Mono', 'Cascadia Code', Consolas, 'SFMono-Regular', monospace" font-size="12.2" fill="#586170">com.chafit.app · versión 35</text></g><g class="node" data-id="openai"><rect x="1320" y="190" width="320" height="110" rx="10" fill="#FFFFFF" stroke="#CBD2DA" stroke-width="1.2"/><path d="M1330,190 h-0 a10 10 0 0 0 -10 10 v90 a10 10 0 0 0 10 10" fill="none"/><rect x="1320" y="200" width="3.5" height="90" rx="1.75" fill="#C2410C"/><g transform="translate(1334,203) scale(0.78)" fill="none" stroke="#C2410C" stroke-width="1.9" stroke-linecap="round" stroke-linejoin="round"><path d="M12 2.8l2.1 6 6.1 2.2-6.1 2.2-2.1 6-2.1-6L3.8 11l6.1-2.2z"/><path d="M19 3.5v3M17.5 5h3"/></g><text x="1358" y="216" font-family="Inter, 'Segoe UI', 'Helvetica Neue', Arial, sans-serif" font-size="10.5" font-weight="600" letter-spacing="0.7" fill="#C2410C">PROVEEDOR DE IA</text><g transform="translate(1610,202) scale(0.8000)"><path d="M11.248 18.25q-.825 0-1.568-.314a4.3 4.3 0 0 1-1.32-.874 4 4 0 0 1-1.304.214 4 4 0 0 1-2.046-.544 4.27 4.27 0 0 1-1.518-1.485 4 4 0 0 1-.56-2.095q0-.48.131-1.04A4.4 4.4 0 0 1 2.04 10.71a4.07 4.07 0 0 1 .017-3.4 4.2 4.2 0 0 1 1.056-1.418 3.8 3.8 0 0 1 1.6-.842 3.9 3.9 0 0 1 .76-1.683q.593-.759 1.451-1.188a4.04 4.04 0 0 1 1.832-.429q.825 0 1.567.313.742.314 1.32.875a4 4 0 0 1 1.304-.215q1.106 0 2.046.545a4.14 4.14 0 0 1 1.501 1.485q.578.941.578 2.095 0 .48-.132 1.04.66.61 1.023 1.419.363.792.363 1.666 0 .892-.38 1.717a4.3 4.3 0 0 1-1.072 1.435 3.8 3.8 0 0 1-1.584.825 3.8 3.8 0 0 1-.775 1.683 4.06 4.06 0 0 1-1.436 1.188 4.04 4.04 0 0 1-1.832.429m-4.076-2.062q.825 0 1.435-.347l3.103-1.782a.36.36 0 0 0 .164-.313v-1.42L7.881 14.62a.67.67 0 0 1-.726 0l-3.118-1.798a.5.5 0 0 1-.017.115v.198q0 .841.396 1.551.413.693 1.139 1.089a3.2 3.2 0 0 0 1.617.412m.165-2.69a.4.4 0 0 0 .181.05q.083 0 .165-.05l1.238-.71-3.977-2.31a.7.7 0 0 1-.363-.643v-3.58q-.825.362-1.32 1.122a2.9 2.9 0 0 0-.495 1.65q0 .809.413 1.55.412.743 1.072 1.123zm3.91 3.663q.875 0 1.585-.396a2.96 2.96 0 0 0 1.534-2.64v-3.564a.32.32 0 0 0-.165-.297l-1.254-.726v4.604a.7.7 0 0 1-.363.643l-3.119 1.799a3 3 0 0 0 1.783.577m.627-6.039V8.878L10.01 7.822 8.129 8.878v2.244l1.881 1.056zM7.057 5.859a.7.7 0 0 1 .363-.644l3.119-1.798a3 3 0 0 0-1.782-.578q-.874 0-1.584.396A2.96 2.96 0 0 0 6.05 4.324a3.07 3.07 0 0 0-.396 1.551v3.547q0 .199.165.314l1.237.726zm8.383 7.887q.825-.364 1.303-1.123.495-.758.495-1.65a3.15 3.15 0 0 0-.412-1.55q-.413-.743-1.073-1.123l-3.086-1.782q-.099-.065-.181-.049a.3.3 0 0 0-.165.05l-1.238.692 3.993 2.327a.6.6 0 0 1 .264.264.64.64 0 0 1 .1.363zm-3.317-8.382a.63.63 0 0 1 .726 0l3.135 1.831v-.297q0-.792-.396-1.501a2.86 2.86 0 0 0-1.105-1.155q-.71-.43-1.65-.43-.825 0-1.436.347L8.294 5.941a.36.36 0 0 0-.165.314v1.418z" fill="#000000"/></g><text x="1334" y="240" font-family="Inter, 'Segoe UI', 'Helvetica Neue', Arial, sans-serif" font-size="16.5" font-weight="650" fill="#14171C">OpenAI API</text><text x="1334" y="260.5" font-family="'JetBrains Mono', 'Cascadia Code', Consolas, 'SFMono-Regular', monospace" font-size="12.2" fill="#586170">chat · visión · images · edits ·</text><text x="1334" y="276.5" font-family="'JetBrains Mono', 'Cascadia Code', Consolas, 'SFMono-Regular', monospace" font-size="12.2" fill="#586170">Whisper · Assistants</text></g><g class="node" data-id="stripe"><rect x="1320" y="390" width="320" height="100" rx="10" fill="#FFFFFF" stroke="#CBD2DA" stroke-width="1.2"/><path d="M1330,390 h-0 a10 10 0 0 0 -10 10 v80 a10 10 0 0 0 10 10" fill="none"/><rect x="1320" y="400" width="3.5" height="80" rx="1.75" fill="#4B5768"/><g transform="translate(1334,403) scale(0.78)" fill="none" stroke="#4B5768" stroke-width="1.9" stroke-linecap="round" stroke-linejoin="round"><rect x="3" y="5.5" width="18" height="13" rx="2"/><path d="M3 10h18M7 15h3"/></g><text x="1358" y="416" font-family="Inter, 'Segoe UI', 'Helvetica Neue', Arial, sans-serif" font-size="10.5" font-weight="600" letter-spacing="0.7" fill="#4B5768">PAGOS</text><g transform="translate(1610,402) scale(0.6667)"><path d="M13.976 9.15c-2.172-.806-3.356-1.426-3.356-2.409 0-.831.683-1.305 1.901-1.305 2.227 0 4.515.858 6.09 1.631l.89-5.494C18.252.975 15.697 0 12.165 0 9.667 0 7.589.654 6.104 1.872 4.56 3.147 3.757 4.992 3.757 7.218c0 4.039 2.467 5.76 6.476 7.219 2.585.92 3.445 1.574 3.445 2.583 0 .98-.84 1.545-2.354 1.545-1.875 0-4.965-.921-6.99-2.109l-.9 5.555C5.175 22.99 8.385 24 11.714 24c2.641 0 4.843-.624 6.328-1.813 1.664-1.305 2.525-3.236 2.525-5.732 0-4.128-2.524-5.851-6.594-7.305h.003z" fill="#635BFF"/></g><text x="1334" y="440" font-family="Inter, 'Segoe UI', 'Helvetica Neue', Arial, sans-serif" font-size="16.5" font-weight="650" fill="#14171C">Stripe</text><text x="1334" y="460.5" font-family="'JetBrains Mono', 'Cascadia Code', Consolas, 'SFMono-Regular', monospace" font-size="12.2" fill="#586170">Checkout · Customer Portal ·</text><text x="1334" y="476.5" font-family="'JetBrains Mono', 'Cascadia Code', Consolas, 'SFMono-Regular', monospace" font-size="12.2" fill="#586170">suscripciones</text></g><g class="node" data-id="resend"><rect x="1320" y="510" width="320" height="100" rx="10" fill="#FFFFFF" stroke="#CBD2DA" stroke-width="1.2"/><path d="M1330,510 h-0 a10 10 0 0 0 -10 10 v80 a10 10 0 0 0 10 10" fill="none"/><rect x="1320" y="520" width="3.5" height="80" rx="1.75" fill="#4B5768"/><g transform="translate(1334,523) scale(0.78)" fill="none" stroke="#4B5768" stroke-width="1.9" stroke-linecap="round" stroke-linejoin="round"><rect x="3" y="5.5" width="18" height="13" rx="2"/><path d="M3.5 7l8.5 6.5L20.5 7"/></g><text x="1358" y="536" font-family="Inter, 'Segoe UI', 'Helvetica Neue', Arial, sans-serif" font-size="10.5" font-weight="600" letter-spacing="0.7" fill="#4B5768">EMAIL</text><text x="1334" y="560" font-family="Inter, 'Segoe UI', 'Helvetica Neue', Arial, sans-serif" font-size="16.5" font-weight="650" fill="#14171C">Resend</text><text x="1334" y="580.5" font-family="'JetBrains Mono', 'Cascadia Code', Consolas, 'SFMono-Regular', monospace" font-size="12.2" fill="#586170">API de email transaccional</text></g><g class="node" data-id="mapbox"><rect x="1320" y="630" width="320" height="100" rx="10" fill="#FFFFFF" stroke="#CBD2DA" stroke-width="1.2"/><path d="M1330,630 h-0 a10 10 0 0 0 -10 10 v80 a10 10 0 0 0 10 10" fill="none"/><rect x="1320" y="640" width="3.5" height="80" rx="1.75" fill="#4B5768"/><g transform="translate(1334,643) scale(0.78)" fill="none" stroke="#4B5768" stroke-width="1.9" stroke-linecap="round" stroke-linejoin="round"><path d="M12 21s-6.5-5.6-6.5-11a6.5 6.5 0 0 1 13 0c0 5.4-6.5 11-6.5 11z"/><circle cx="12" cy="10" r="2.3"/></g><text x="1358" y="656" font-family="Inter, 'Segoe UI', 'Helvetica Neue', Arial, sans-serif" font-size="10.5" font-weight="600" letter-spacing="0.7" fill="#4B5768">MAPAS</text><text x="1334" y="680" font-family="Inter, 'Segoe UI', 'Helvetica Neue', Arial, sans-serif" font-size="16.5" font-weight="650" fill="#14171C">Mapbox</text><text x="1334" y="700.5" font-family="'JetBrains Mono', 'Cascadia Code', Consolas, 'SFMono-Regular', monospace" font-size="12.2" fill="#586170">Mapbox GL · Geocoding v5</text></g><g class="node" data-id="n8n"><rect x="1320" y="750" width="320" height="100" rx="10" fill="#FFFFFF" stroke="#CBD2DA" stroke-width="1.2"/><path d="M1330,750 h-0 a10 10 0 0 0 -10 10 v80 a10 10 0 0 0 10 10" fill="none"/><rect x="1320" y="760" width="3.5" height="80" rx="1.75" fill="#4B5768"/><g transform="translate(1334,763) scale(0.78)" fill="none" stroke="#4B5768" stroke-width="1.9" stroke-linecap="round" stroke-linejoin="round"><circle cx="5.5" cy="6" r="2.5"/><circle cx="18.5" cy="6" r="2.5"/><circle cx="12" cy="18" r="2.5"/><path d="M8 6h8M7 8l3.7 7.8M17 8l-3.7 7.8"/></g><text x="1358" y="776" font-family="Inter, 'Segoe UI', 'Helvetica Neue', Arial, sans-serif" font-size="10.5" font-weight="600" letter-spacing="0.7" fill="#4B5768">AUTOMATIZACIÓN</text><text x="1334" y="800" font-family="Inter, 'Segoe UI', 'Helvetica Neue', Arial, sans-serif" font-size="16.5" font-weight="650" fill="#14171C">n8n (Elestio)</text><text x="1334" y="820.5" font-family="'JetBrains Mono', 'Cascadia Code', Consolas, 'SFMono-Regular', monospace" font-size="12.2" fill="#586170">webhook de nuevas altas</text></g><g class="node" data-id="health"><rect x="640" y="905" width="400" height="72" rx="10" fill="#FFFFFF" stroke="#CBD2DA" stroke-width="1.2"/><path d="M650,905 h-0 a10 10 0 0 0 -10 10 v52 a10 10 0 0 0 10 10" fill="none"/><rect x="640" y="915" width="3.5" height="52" rx="1.75" fill="#2458D3"/><g transform="translate(654,918) scale(0.78)" fill="none" stroke="#2458D3" stroke-width="1.9" stroke-linecap="round" stroke-linejoin="round"><rect x="6" y="6" width="12" height="12" rx="2"/><path d="M9 2v4M15 2v4M9 18v4M15 18v4M2 9h4M2 15h4M18 9h4M18 15h4"/></g><text x="678" y="931" font-family="Inter, 'Segoe UI', 'Helvetica Neue', Arial, sans-serif" font-size="10.5" font-weight="600" letter-spacing="0.7" fill="#2458D3">SISTEMA OPERATIVO</text><text x="654" y="955" font-family="Inter, 'Segoe UI', 'Helvetica Neue', Arial, sans-serif" font-size="16.5" font-weight="650" fill="#14171C">HealthKit · Health Connect</text></g><rect x="437.0" y="226.8" width="126.1" height="36.4" rx="4" fill="#FBFAF7" fill-opacity="0.94"/><text x="500.0" y="242.0" text-anchor="middle" font-family="Inter, 'Segoe UI', 'Helvetica Neue', Arial, sans-serif" font-size="12.2"  fill="#586170">HTTPS + WebSocket</text><text x="500.0" y="257.2" text-anchor="middle" font-family="Inter, 'Segoe UI', 'Helvetica Neue', Arial, sans-serif" font-size="12.2"  fill="#586170">supabase-js · JWT</text><rect x="443.7" y="381.8" width="112.7" height="36.4" rx="4" fill="#FBFAF7" fill-opacity="0.94"/><text x="500.0" y="397.0" text-anchor="middle" font-family="Inter, 'Segoe UI', 'Helvetica Neue', Arial, sans-serif" font-size="12.2"  fill="#586170">sirve el bundle</text><text x="500.0" y="412.2" text-anchor="middle" font-family="Inter, 'Segoe UI', 'Helvetica Neue', Arial, sans-serif" font-size="12.2"  fill="#586170">HTTPS · CDN</text><rect x="437.0" y="531.8" width="126.1" height="36.4" rx="4" fill="#FBFAF7" fill-opacity="0.94"/><text x="500.0" y="547.0" text-anchor="middle" font-family="Inter, 'Segoe UI', 'Helvetica Neue', Arial, sans-serif" font-size="12.2"  fill="#586170">SDK · DSN público</text><text x="500.0" y="562.2" text-anchor="middle" font-family="Inter, 'Segoe UI', 'Helvetica Neue', Arial, sans-serif" font-size="12.2"  fill="#586170">sin PII</text><rect x="450.4" y="681.8" width="99.2" height="36.4" rx="4" fill="#FBFAF7" fill-opacity="0.94"/><text x="500.0" y="697.0" text-anchor="middle" font-family="Inter, 'Segoe UI', 'Helvetica Neue', Arial, sans-serif" font-size="12.2"  fill="#586170">distribuye</text><text x="500.0" y="712.2" text-anchor="middle" font-family="Inter, 'Segoe UI', 'Helvetica Neue', Arial, sans-serif" font-size="12.2"  fill="#586170">iOS · Android</text><rect x="1123.7" y="226.8" width="112.7" height="36.4" rx="4" fill="#FBFAF7" fill-opacity="0.94"/><text x="1180.0" y="242.0" text-anchor="middle" font-family="Inter, 'Segoe UI', 'Helvetica Neue', Arial, sans-serif" font-size="12.2"  fill="#C2410C">REST desde Edge</text><text x="1180.0" y="257.2" text-anchor="middle" font-family="Inter, 'Segoe UI', 'Helvetica Neue', Arial, sans-serif" font-size="12.2"  fill="#C2410C">OPENAI_API_KEY</text><rect x="1127.0" y="421.8" width="105.9" height="36.4" rx="4" fill="#FBFAF7" fill-opacity="0.94"/><text x="1180.0" y="437.0" text-anchor="middle" font-family="Inter, 'Segoe UI', 'Helvetica Neue', Arial, sans-serif" font-size="12.2"  fill="#586170">SDK desde Edge</text><text x="1180.0" y="452.2" text-anchor="middle" font-family="Inter, 'Segoe UI', 'Helvetica Neue', Arial, sans-serif" font-size="12.2"  fill="#586170">clave secreta</text><rect x="1123.7" y="541.8" width="112.7" height="36.4" rx="4" fill="#FBFAF7" fill-opacity="0.94"/><text x="1180.0" y="557.0" text-anchor="middle" font-family="Inter, 'Segoe UI', 'Helvetica Neue', Arial, sans-serif" font-size="12.2"  fill="#586170">REST desde Edge</text><text x="1180.0" y="572.2" text-anchor="middle" font-family="Inter, 'Segoe UI', 'Helvetica Neue', Arial, sans-serif" font-size="12.2"  fill="#586170">RESEND_API_KEY</text><rect x="1127.0" y="661.8" width="105.9" height="36.4" rx="4" fill="#FBFAF7" fill-opacity="0.94"/><text x="1180.0" y="677.0" text-anchor="middle" font-family="Inter, 'Segoe UI', 'Helvetica Neue', Arial, sans-serif" font-size="12.2"  fill="#586170">GL + Geocoding</text><text x="1180.0" y="692.2" text-anchor="middle" font-family="Inter, 'Segoe UI', 'Helvetica Neue', Arial, sans-serif" font-size="12.2"  fill="#586170">token público</text><rect x="1133.7" y="781.8" width="92.5" height="36.4" rx="4" fill="#FBFAF7" fill-opacity="0.94"/><text x="1180.0" y="797.0" text-anchor="middle" font-family="Inter, 'Segoe UI', 'Helvetica Neue', Arial, sans-serif" font-size="12.2"  fill="#586170">webhook POST</text><text x="1180.0" y="812.2" text-anchor="middle" font-family="Inter, 'Segoe UI', 'Helvetica Neue', Arial, sans-serif" font-size="12.2"  fill="#586170">en el alta</text><text x="40" y="1010" font-family="Inter, 'Segoe UI', 'Helvetica Neue', Arial, sans-serif" font-size="10.5" font-weight="700" letter-spacing="0.8" fill="#586170">LEYENDA</text><line x1="40" y1="1028" x2="70" y2="1028" stroke="#586170" stroke-width="1.5"  marker-end="url(#chafit-integrations-light-a-call)"/><text x="78" y="1032" font-family="Inter, 'Segoe UI', 'Helvetica Neue', Arial, sans-serif" font-size="11.5" fill="#586170">Llamada interna</text><line x1="198.875" y1="1028" x2="228.875" y2="1028" stroke="#334155" stroke-width="1.6" stroke-dasharray="2 4" marker-end="url(#chafit-integrations-light-a-deploy)"/><text x="236.875" y="1032" font-family="Inter, 'Segoe UI', 'Helvetica Neue', Arial, sans-serif" font-size="11.5" fill="#586170">Despliegue / distribución</text><line x1="421" y1="1028" x2="451" y2="1028" stroke="#586170" stroke-width="1.5" stroke-dasharray="6 4" marker-end="url(#chafit-integrations-light-a-async)"/><text x="459" y="1032" font-family="Inter, 'Segoe UI', 'Helvetica Neue', Arial, sans-serif" font-size="11.5" fill="#586170">Asíncrono / evento / webhook</text><line x1="662.1" y1="1028" x2="692.1" y2="1028" stroke="#C2410C" stroke-width="1.8"  marker-end="url(#chafit-integrations-light-a-ai)"/><text x="700.1" y="1032" font-family="Inter, 'Segoe UI', 'Helvetica Neue', Arial, sans-serif" font-size="11.5" fill="#586170">Inferencia de IA</text><line x1="827.3" y1="1028" x2="857.3" y2="1028" stroke="#4B5768" stroke-width="1.5"  marker-end="url(#chafit-integrations-light-a-api)"/><text x="865.3" y="1032" font-family="Inter, 'Segoe UI', 'Helvetica Neue', Arial, sans-serif" font-size="11.5" fill="#586170">API externa (HTTPS)</text><line x1="1011.4749999999999" y1="1028" x2="1041.475" y2="1028" stroke="#5F6B7A" stroke-width="1.5"  marker-end="url(#chafit-integrations-light-a-local)"/><text x="1049.475" y="1032" font-family="Inter, 'Segoe UI', 'Helvetica Neue', Arial, sans-serif" font-size="11.5" fill="#586170">Proceso local</text></svg>