<svg xmlns="http://www.w3.org/2000/svg" viewBox="0 0 1440 1090" width="1440" height="1090" role="img" aria-labelledby="t-icgvault-context-dark d-icgvault-context-dark"><title id="t-icgvault-context-dark">ICG Vault · contexto del sistema</title><desc id="d-icgvault-context-dark">Quién lo usa y de qué sistemas externos depende</desc><defs><marker id="icgvault-context-dark-a-user" viewBox="0 0 10 10" refX="9" refY="5" markerWidth="8" markerHeight="8" orient="auto-start-reverse"><path d="M0,1 L9,5 L0,9 z" fill="#C9D1DB"/></marker><marker id="icgvault-context-dark-a-call" viewBox="0 0 10 10" refX="9" refY="5" markerWidth="8" markerHeight="8" orient="auto-start-reverse"><path d="M0,1 L9,5 L0,9 z" fill="#9AA4B2"/></marker><marker id="icgvault-context-dark-a-api" viewBox="0 0 10 10" refX="9" refY="5" markerWidth="8" markerHeight="8" orient="auto-start-reverse"><path d="M0,1 L9,5 L0,9 z" fill="#9FB0C4"/></marker><marker id="icgvault-context-dark-a-ai" viewBox="0 0 10 10" refX="9" refY="5" markerWidth="8" markerHeight="8" orient="auto-start-reverse"><path d="M0,1 L9,5 L0,9 z" fill="#FF9A5A"/></marker><marker id="icgvault-context-dark-a-data" viewBox="0 0 10 10" refX="9" refY="5" markerWidth="8" markerHeight="8" orient="auto-start-reverse"><path d="M0,1 L9,5 L0,9 z" fill="#AE92FF"/></marker><marker id="icgvault-context-dark-a-auth" viewBox="0 0 10 10" refX="9" refY="5" markerWidth="8" markerHeight="8" orient="auto-start-reverse"><path d="M0,1 L9,5 L0,9 z" fill="#F2B84B"/></marker><marker id="icgvault-context-dark-a-async" viewBox="0 0 10 10" refX="9" refY="5" markerWidth="8" markerHeight="8" orient="auto-start-reverse"><path d="M0,1 L9,5 L0,9 z" fill="#9AA4B2"/></marker><marker id="icgvault-context-dark-a-deploy" viewBox="0 0 10 10" refX="9" refY="5" markerWidth="8" markerHeight="8" orient="auto-start-reverse"><path d="M0,1 L9,5 L0,9 z" fill="#A9B6C6"/></marker><marker id="icgvault-context-dark-a-local" viewBox="0 0 10 10" refX="9" refY="5" markerWidth="8" markerHeight="8" orient="auto-start-reverse"><path d="M0,1 L9,5 L0,9 z" fill="#8C99AA"/></marker><marker id="icgvault-context-dark-a-human" viewBox="0 0 10 10" refX="9" refY="5" markerWidth="8" markerHeight="8" orient="auto-start-reverse"><path d="M0,1 L9,5 L0,9 z" fill="#FF6F8E"/></marker></defs><rect width="1440" height="1090" fill="#0D1015"/><text x="40" y="52" font-family="Inter, 'Segoe UI', 'Helvetica Neue', Arial, sans-serif" font-size="24" font-weight="700" fill="#E7EBF0">ICG Vault · contexto del sistema</text><text x="40" y="78" font-family="Inter, 'Segoe UI', 'Helvetica Neue', Arial, sans-serif" font-size="14" fill="#9AA4B2">Quién lo usa y de qué sistemas externos depende</text><rect x="1246" y="34" width="154" height="24" rx="12" fill="none" stroke="#2B323D"/><text x="1323" y="50" text-anchor="middle" font-family="'JetBrains Mono', 'Cascadia Code', Consolas, 'SFMono-Regular', monospace" font-size="11" fill="#9AA4B2">C4 · nivel 1 · AS-IS</text><text x="40" y="1068" font-family="Inter, 'Segoe UI', 'Helvetica Neue', Arial, sans-serif" font-size="11.5" fill="#6B7584">Fuente: jechamo/icgbolt@610d99d · inspección 26/09/2026</text><text x="1400" y="1068" text-anchor="end" font-family="Inter, 'Segoe UI', 'Helvetica Neue', Arial, sans-serif" font-size="11.5" fill="#6B7584">TFM · Jorge Chamorro · AS-IS</text><path d="M330,385 L470,385" fill="none" stroke="#C9D1DB" stroke-width="1.6"  marker-end="url(#icgvault-context-dark-a-user)" /><path d="M330,610 L470,610" fill="none" stroke="#C9D1DB" stroke-width="1.6"  marker-end="url(#icgvault-context-dark-a-user)" /><path d="M990,235 L1110,235" fill="none" stroke="#9FB0C4" stroke-width="1.5"  marker-end="url(#icgvault-context-dark-a-api)" /><path d="M990,345 L1110,345" fill="none" stroke="#9FB0C4" stroke-width="1.5"  marker-end="url(#icgvault-context-dark-a-api)" /><path d="M990,455 L1110,455" fill="none" stroke="#9FB0C4" stroke-width="1.5"  marker-end="url(#icgvault-context-dark-a-api)" /><path d="M990,565 L1110,565" fill="none" stroke="#9FB0C4" stroke-width="1.5"  marker-end="url(#icgvault-context-dark-a-api)" /><path d="M990,675 L1110,675" fill="none" stroke="#9FB0C4" stroke-width="1.5"  marker-end="url(#icgvault-context-dark-a-api)" /><path d="M990,788 L1110,788" fill="none" stroke="#FF9A5A" stroke-width="1.8"  marker-end="url(#icgvault-context-dark-a-ai)" /><path d="M595,840 L595,920" fill="none" stroke="#F2B84B" stroke-width="1.5"  marker-end="url(#icgvault-context-dark-a-auth)" /><path d="M865,920 L865,840" fill="none" stroke="#A9B6C6" stroke-width="1.6" stroke-dasharray="2 4" marker-end="url(#icgvault-context-dark-a-deploy)" /><g class="node" data-id="users"><rect x="60" y="330" width="270" height="110" rx="10" fill="#151A21" stroke="#2C343F" stroke-width="1.2"/><path d="M70,330 h-0 a10 10 0 0 0 -10 10 v90 a10 10 0 0 0 10 10" fill="none"/><rect x="60" y="340" width="3.5" height="90" rx="1.75" fill="#C9D1DB"/><g transform="translate(74,343) scale(0.78)" fill="none" stroke="#C9D1DB" stroke-width="1.9" stroke-linecap="round" stroke-linejoin="round"><circle cx="12" cy="8" r="4"/><path d="M4 21c0-4.4 3.6-8 8-8s8 3.6 8 8"/></g><text x="98" y="356" font-family="Inter, 'Segoe UI', 'Helvetica Neue', Arial, sans-serif" font-size="10.5" font-weight="600" letter-spacing="0.7" fill="#C9D1DB">PERSONA</text><text x="74" y="380" font-family="Inter, 'Segoe UI', 'Helvetica Neue', Arial, sans-serif" font-size="16.5" font-weight="650" fill="#E7EBF0">Votantes y jugadores</text><text x="74" y="400.5" font-family="'JetBrains Mono', 'Cascadia Code', Consolas, 'SFMono-Regular', monospace" font-size="12.2" fill="#9AA4B2">usuarios e influencers</text></g><g class="node" data-id="admin"><rect x="60" y="560" width="270" height="100" rx="10" fill="#151A21" stroke="#2C343F" stroke-width="1.2"/><path d="M70,560 h-0 a10 10 0 0 0 -10 10 v80 a10 10 0 0 0 10 10" fill="none"/><rect x="60" y="570" width="3.5" height="80" rx="1.75" fill="#C9D1DB"/><g transform="translate(74,573) scale(0.78)" fill="none" stroke="#C9D1DB" stroke-width="1.9" stroke-linecap="round" stroke-linejoin="round"><circle cx="12" cy="8" r="4"/><path d="M4 21c0-4.4 3.6-8 8-8s8 3.6 8 8"/></g><text x="98" y="586" font-family="Inter, 'Segoe UI', 'Helvetica Neue', Arial, sans-serif" font-size="10.5" font-weight="600" letter-spacing="0.7" fill="#C9D1DB">PERSONA</text><text x="74" y="610" font-family="Inter, 'Segoe UI', 'Helvetica Neue', Arial, sans-serif" font-size="16.5" font-weight="650" fill="#E7EBF0">Administración</text><text x="74" y="630.5" font-family="'JetBrains Mono', 'Cascadia Code', Consolas, 'SFMono-Regular', monospace" font-size="12.2" fill="#9AA4B2">rol admin · 24 pestañas</text></g><g class="node" data-id="system"><rect x="470" y="190" width="520" height="650" rx="10" fill="#151A21" stroke="#2C343F" stroke-width="1.2"/><path d="M480,190 h-0 a10 10 0 0 0 -10 10 v630 a10 10 0 0 0 10 10" fill="none"/><rect x="470" y="200" width="3.5" height="630" rx="1.75" fill="#6EA2FF"/><g transform="translate(484,203) scale(0.78)" fill="none" stroke="#6EA2FF" stroke-width="1.9" stroke-linecap="round" stroke-linejoin="round"><path d="M12 3l8 4.5v9L12 21l-8-4.5v-9z"/><path d="M4 7.5l8 4.5 8-4.5M12 12v9"/></g><text x="508" y="216" font-family="Inter, 'Segoe UI', 'Helvetica Neue', Arial, sans-serif" font-size="10.5" font-weight="600" letter-spacing="0.7" fill="#6EA2FF">SISTEMA</text><text x="484" y="240" font-family="Inter, 'Segoe UI', 'Helvetica Neue', Arial, sans-serif" font-size="16.5" font-weight="650" fill="#E7EBF0">ICG Vault</text><text x="484" y="260.5" font-family="'JetBrains Mono', 'Cascadia Code', Consolas, 'SFMono-Regular', monospace" font-size="12.2" fill="#9AA4B2">web · PWA · iOS · Android · backend Supabase</text><text x="484" y="279.5" font-family="Inter, 'Segoe UI', 'Helvetica Neue', Arial, sans-serif" font-size="12.8" fill="#9AA4B2">63 funcionalidades en 13 módulos · 35 Edge Functions · 88 tablas ·</text><text x="484" y="296.5" font-family="Inter, 'Segoe UI', 'Helvetica Neue', Arial, sans-serif" font-size="12.8" fill="#9AA4B2">producción en icgvault.es, App Store y Google Play</text><line x1="484" y1="366" x2="976" y2="366" stroke="#2B323D"/><circle cx="488" cy="376" r="2.2" fill="#6EA2FF"/><text x="498" y="380" font-family="'JetBrains Mono', 'Cascadia Code', Consolas, 'SFMono-Regular', monospace" font-size="12" fill="#E7EBF0">Catálogo de cine, series y videojuegos</text><circle cx="488" cy="402" r="2.2" fill="#6EA2FF"/><text x="498" y="406" font-family="'JetBrains Mono', 'Cascadia Code', Consolas, 'SFMono-Regular', monospace" font-size="12" fill="#E7EBF0">Voto con poder por nivel y rankings</text><circle cx="488" cy="428" r="2.2" fill="#6EA2FF"/><text x="498" y="432" font-family="'JetBrains Mono', 'Cascadia Code', Consolas, 'SFMono-Regular', monospace" font-size="12" fill="#E7EBF0">Progresión RPG: cofres, mascotas, avatares</text><circle cx="488" cy="454" r="2.2" fill="#6EA2FF"/><text x="498" y="458" font-family="'JetBrains Mono', 'Cascadia Code', Consolas, 'SFMono-Regular', monospace" font-size="12" fill="#E7EBF0">Juegos diarios: Zoom Out, Timeline, FlashOut</text><circle cx="488" cy="480" r="2.2" fill="#6EA2FF"/><text x="498" y="484" font-family="'JetBrains Mono', 'Cascadia Code', Consolas, 'SFMono-Regular', monospace" font-size="12" fill="#E7EBF0">Competitivo: Arena, ICG Duelo, Inmortales</text><circle cx="488" cy="506" r="2.2" fill="#6EA2FF"/><text x="498" y="510" font-family="'JetBrains Mono', 'Cascadia Code', Consolas, 'SFMono-Regular', monospace" font-size="12" fill="#E7EBF0">Comunidad: feed, debates, encuestas</text><circle cx="488" cy="532" r="2.2" fill="#6EA2FF"/><text x="498" y="536" font-family="'JetBrains Mono', 'Cascadia Code', Consolas, 'SFMono-Regular', monospace" font-size="12" fill="#E7EBF0">Noticias, podcasts y calendario</text><circle cx="488" cy="558" r="2.2" fill="#6EA2FF"/><text x="498" y="562" font-family="'JetBrains Mono', 'Cascadia Code', Consolas, 'SFMono-Regular', monospace" font-size="12" fill="#E7EBF0">Administración y tareas programadas</text></g><g class="node" data-id="tmdb"><rect x="1110" y="190" width="280" height="90" rx="10" fill="#151A21" stroke="#2C343F" stroke-width="1.2"/><path d="M1120,190 h-0 a10 10 0 0 0 -10 10 v70 a10 10 0 0 0 10 10" fill="none"/><rect x="1110" y="200" width="3.5" height="70" rx="1.75" fill="#9FB0C4"/><g transform="translate(1124,203) scale(0.78)" fill="none" stroke="#9FB0C4" stroke-width="1.9" stroke-linecap="round" stroke-linejoin="round"><circle cx="12" cy="12" r="8.5"/><path d="M3.5 12h17"/><path d="M12 3.5c2.6 2.4 3.8 5.2 3.8 8.5s-1.2 6.1-3.8 8.5c-2.6-2.4-3.8-5.2-3.8-8.5S9.4 5.9 12 3.5z"/></g><text x="1148" y="216" font-family="Inter, 'Segoe UI', 'Helvetica Neue', Arial, sans-serif" font-size="10.5" font-weight="600" letter-spacing="0.7" fill="#9FB0C4">API DE CATÁLOGO</text><text x="1124" y="240" font-family="Inter, 'Segoe UI', 'Helvetica Neue', Arial, sans-serif" font-size="16.5" font-weight="650" fill="#E7EBF0">TMDB</text><text x="1124" y="260.5" font-family="'JetBrains Mono', 'Cascadia Code', Consolas, 'SFMono-Regular', monospace" font-size="12.2" fill="#9AA4B2">API v3 · cine y series</text></g><g class="node" data-id="igdb"><rect x="1110" y="300" width="280" height="90" rx="10" fill="#151A21" stroke="#2C343F" stroke-width="1.2"/><path d="M1120,300 h-0 a10 10 0 0 0 -10 10 v70 a10 10 0 0 0 10 10" fill="none"/><rect x="1110" y="310" width="3.5" height="70" rx="1.75" fill="#9FB0C4"/><g transform="translate(1124,313) scale(0.78)" fill="none" stroke="#9FB0C4" stroke-width="1.9" stroke-linecap="round" stroke-linejoin="round"><circle cx="12" cy="12" r="8.5"/><path d="M3.5 12h17"/><path d="M12 3.5c2.6 2.4 3.8 5.2 3.8 8.5s-1.2 6.1-3.8 8.5c-2.6-2.4-3.8-5.2-3.8-8.5S9.4 5.9 12 3.5z"/></g><text x="1148" y="326" font-family="Inter, 'Segoe UI', 'Helvetica Neue', Arial, sans-serif" font-size="10.5" font-weight="600" letter-spacing="0.7" fill="#9FB0C4">API DE CATÁLOGO</text><text x="1124" y="350" font-family="Inter, 'Segoe UI', 'Helvetica Neue', Arial, sans-serif" font-size="16.5" font-weight="650" fill="#E7EBF0">IGDB</text><text x="1124" y="370.5" font-family="'JetBrains Mono', 'Cascadia Code', Consolas, 'SFMono-Regular', monospace" font-size="12.2" fill="#9AA4B2">Twitch OAuth · API v4</text></g><g class="node" data-id="hltb"><rect x="1110" y="410" width="280" height="90" rx="10" fill="#151A21" stroke="#2C343F" stroke-width="1.2"/><path d="M1120,410 h-0 a10 10 0 0 0 -10 10 v70 a10 10 0 0 0 10 10" fill="none"/><rect x="1110" y="420" width="3.5" height="70" rx="1.75" fill="#9FB0C4"/><g transform="translate(1124,423) scale(0.78)" fill="none" stroke="#9FB0C4" stroke-width="1.9" stroke-linecap="round" stroke-linejoin="round"><circle cx="12" cy="12" r="8.5"/><path d="M3.5 12h17"/><path d="M12 3.5c2.6 2.4 3.8 5.2 3.8 8.5s-1.2 6.1-3.8 8.5c-2.6-2.4-3.8-5.2-3.8-8.5S9.4 5.9 12 3.5z"/></g><text x="1148" y="436" font-family="Inter, 'Segoe UI', 'Helvetica Neue', Arial, sans-serif" font-size="10.5" font-weight="600" letter-spacing="0.7" fill="#9FB0C4">FUENTE WEB</text><text x="1124" y="460" font-family="Inter, 'Segoe UI', 'Helvetica Neue', Arial, sans-serif" font-size="16.5" font-weight="650" fill="#E7EBF0">HowLongToBeat</text><text x="1124" y="480.5" font-family="'JetBrains Mono', 'Cascadia Code', Consolas, 'SFMono-Regular', monospace" font-size="12.2" fill="#9AA4B2">duración de juegos</text></g><g class="node" data-id="metacritic"><rect x="1110" y="520" width="280" height="90" rx="10" fill="#151A21" stroke="#2C343F" stroke-width="1.2"/><path d="M1120,520 h-0 a10 10 0 0 0 -10 10 v70 a10 10 0 0 0 10 10" fill="none"/><rect x="1110" y="530" width="3.5" height="70" rx="1.75" fill="#9FB0C4"/><g transform="translate(1124,533) scale(0.78)" fill="none" stroke="#9FB0C4" stroke-width="1.9" stroke-linecap="round" stroke-linejoin="round"><circle cx="12" cy="12" r="8.5"/><path d="M3.5 12h17"/><path d="M12 3.5c2.6 2.4 3.8 5.2 3.8 8.5s-1.2 6.1-3.8 8.5c-2.6-2.4-3.8-5.2-3.8-8.5S9.4 5.9 12 3.5z"/></g><text x="1148" y="546" font-family="Inter, 'Segoe UI', 'Helvetica Neue', Arial, sans-serif" font-size="10.5" font-weight="600" letter-spacing="0.7" fill="#9FB0C4">FUENTE WEB</text><text x="1124" y="570" font-family="Inter, 'Segoe UI', 'Helvetica Neue', Arial, sans-serif" font-size="16.5" font-weight="650" fill="#E7EBF0">Metacritic</text><text x="1124" y="590.5" font-family="'JetBrains Mono', 'Cascadia Code', Consolas, 'SFMono-Regular', monospace" font-size="12.2" fill="#9AA4B2">crítica (HTML)</text></g><g class="node" data-id="rss"><rect x="1110" y="630" width="280" height="90" rx="10" fill="#151A21" stroke="#2C343F" stroke-width="1.2"/><path d="M1120,630 h-0 a10 10 0 0 0 -10 10 v70 a10 10 0 0 0 10 10" fill="none"/><rect x="1110" y="640" width="3.5" height="70" rx="1.75" fill="#9FB0C4"/><g transform="translate(1124,643) scale(0.78)" fill="none" stroke="#9FB0C4" stroke-width="1.9" stroke-linecap="round" stroke-linejoin="round"><path d="M5 4.5a14.5 14.5 0 0 1 14.5 14.5M5 10.5a8.5 8.5 0 0 1 8.5 8.5"/><circle cx="6" cy="18" r="1.5"/></g><text x="1148" y="656" font-family="Inter, 'Segoe UI', 'Helvetica Neue', Arial, sans-serif" font-size="10.5" font-weight="600" letter-spacing="0.7" fill="#9FB0C4">FEEDS</text><text x="1124" y="680" font-family="Inter, 'Segoe UI', 'Helvetica Neue', Arial, sans-serif" font-size="16.5" font-weight="650" fill="#E7EBF0">Medios y podcasts</text><text x="1124" y="700.5" font-family="'JetBrains Mono', 'Cascadia Code', Consolas, 'SFMono-Regular', monospace" font-size="12.2" fill="#9AA4B2">11 feeds RSS · feeds de podcast</text></g><g class="node" data-id="openai"><rect x="1110" y="740" width="280" height="96" rx="10" fill="#151A21" stroke="#2C343F" stroke-width="1.2"/><path d="M1120,740 h-0 a10 10 0 0 0 -10 10 v76 a10 10 0 0 0 10 10" fill="none"/><rect x="1110" y="750" width="3.5" height="76" rx="1.75" fill="#FF9A5A"/><g transform="translate(1124,753) scale(0.78)" fill="none" stroke="#FF9A5A" stroke-width="1.9" stroke-linecap="round" stroke-linejoin="round"><path d="M12 2.8l2.1 6 6.1 2.2-6.1 2.2-2.1 6-2.1-6L3.8 11l6.1-2.2z"/><path d="M19 3.5v3M17.5 5h3"/></g><text x="1148" y="766" font-family="Inter, 'Segoe UI', 'Helvetica Neue', Arial, sans-serif" font-size="10.5" font-weight="600" letter-spacing="0.7" fill="#FF9A5A">PROVEEDOR DE IA</text><g transform="translate(1360,752) scale(0.8000)"><path d="M11.248 18.25q-.825 0-1.568-.314a4.3 4.3 0 0 1-1.32-.874 4 4 0 0 1-1.304.214 4 4 0 0 1-2.046-.544 4.27 4.27 0 0 1-1.518-1.485 4 4 0 0 1-.56-2.095q0-.48.131-1.04A4.4 4.4 0 0 1 2.04 10.71a4.07 4.07 0 0 1 .017-3.4 4.2 4.2 0 0 1 1.056-1.418 3.8 3.8 0 0 1 1.6-.842 3.9 3.9 0 0 1 .76-1.683q.593-.759 1.451-1.188a4.04 4.04 0 0 1 1.832-.429q.825 0 1.567.313.742.314 1.32.875a4 4 0 0 1 1.304-.215q1.106 0 2.046.545a4.14 4.14 0 0 1 1.501 1.485q.578.941.578 2.095 0 .48-.132 1.04.66.61 1.023 1.419.363.792.363 1.666 0 .892-.38 1.717a4.3 4.3 0 0 1-1.072 1.435 3.8 3.8 0 0 1-1.584.825 3.8 3.8 0 0 1-.775 1.683 4.06 4.06 0 0 1-1.436 1.188 4.04 4.04 0 0 1-1.832.429m-4.076-2.062q.825 0 1.435-.347l3.103-1.782a.36.36 0 0 0 .164-.313v-1.42L7.881 14.62a.67.67 0 0 1-.726 0l-3.118-1.798a.5.5 0 0 1-.017.115v.198q0 .841.396 1.551.413.693 1.139 1.089a3.2 3.2 0 0 0 1.617.412m.165-2.69a.4.4 0 0 0 .181.05q.083 0 .165-.05l1.238-.71-3.977-2.31a.7.7 0 0 1-.363-.643v-3.58q-.825.362-1.32 1.122a2.9 2.9 0 0 0-.495 1.65q0 .809.413 1.55.412.743 1.072 1.123zm3.91 3.663q.875 0 1.585-.396a2.96 2.96 0 0 0 1.534-2.64v-3.564a.32.32 0 0 0-.165-.297l-1.254-.726v4.604a.7.7 0 0 1-.363.643l-3.119 1.799a3 3 0 0 0 1.783.577m.627-6.039V8.878L10.01 7.822 8.129 8.878v2.244l1.881 1.056zM7.057 5.859a.7.7 0 0 1 .363-.644l3.119-1.798a3 3 0 0 0-1.782-.578q-.874 0-1.584.396A2.96 2.96 0 0 0 6.05 4.324a3.07 3.07 0 0 0-.396 1.551v3.547q0 .199.165.314l1.237.726zm8.383 7.887q.825-.364 1.303-1.123.495-.758.495-1.65a3.15 3.15 0 0 0-.412-1.55q-.413-.743-1.073-1.123l-3.086-1.782q-.099-.065-.181-.049a.3.3 0 0 0-.165.05l-1.238.692 3.993 2.327a.6.6 0 0 1 .264.264.64.64 0 0 1 .1.363zm-3.317-8.382a.63.63 0 0 1 .726 0l3.135 1.831v-.297q0-.792-.396-1.501a2.86 2.86 0 0 0-1.105-1.155q-.71-.43-1.65-.43-.825 0-1.436.347L8.294 5.941a.36.36 0 0 0-.165.314v1.418z" fill="#E7EBF0"/></g><text x="1124" y="790" font-family="Inter, 'Segoe UI', 'Helvetica Neue', Arial, sans-serif" font-size="16.5" font-weight="650" fill="#E7EBF0">OpenAI API</text><text x="1124" y="810.5" font-family="'JetBrains Mono', 'Cascadia Code', Consolas, 'SFMono-Regular', monospace" font-size="12.2" fill="#9AA4B2">images · edits · chat/completions</text></g><g class="node" data-id="idp"><rect x="470" y="920" width="250" height="92" rx="10" fill="#151A21" stroke="#2C343F" stroke-width="1.2"/><path d="M480,920 h-0 a10 10 0 0 0 -10 10 v72 a10 10 0 0 0 10 10" fill="none"/><rect x="470" y="930" width="3.5" height="72" rx="1.75" fill="#F2B84B"/><g transform="translate(484,933) scale(0.78)" fill="none" stroke="#F2B84B" stroke-width="1.9" stroke-linecap="round" stroke-linejoin="round"><path d="M12 3l7.5 3v5.5c0 4.7-3.2 8.2-7.5 9.5-4.3-1.3-7.5-4.8-7.5-9.5V6z"/><path d="M9 12l2 2 4-4"/></g><text x="508" y="946" font-family="Inter, 'Segoe UI', 'Helvetica Neue', Arial, sans-serif" font-size="10.5" font-weight="600" letter-spacing="0.7" fill="#F2B84B">IDENTIDAD</text><text x="484" y="970" font-family="Inter, 'Segoe UI', 'Helvetica Neue', Arial, sans-serif" font-size="16.5" font-weight="650" fill="#E7EBF0">Google · Apple</text><text x="484" y="990.5" font-family="'JetBrains Mono', 'Cascadia Code', Consolas, 'SFMono-Regular', monospace" font-size="12.2" fill="#9AA4B2">OAuth web · Sign-In nativo</text></g><g class="node" data-id="stores"><rect x="740" y="920" width="250" height="92" rx="10" fill="#151A21" stroke="#2C343F" stroke-width="1.2"/><path d="M750,920 h-0 a10 10 0 0 0 -10 10 v72 a10 10 0 0 0 10 10" fill="none"/><rect x="740" y="930" width="3.5" height="72" rx="1.75" fill="#A9B6C6"/><g transform="translate(754,933) scale(0.78)" fill="none" stroke="#A9B6C6" stroke-width="1.9" stroke-linecap="round" stroke-linejoin="round"><path d="M5 8h14l-1.2 12.5H6.2z"/><path d="M9 8V6.5a3 3 0 0 1 6 0V8"/></g><text x="778" y="946" font-family="Inter, 'Segoe UI', 'Helvetica Neue', Arial, sans-serif" font-size="10.5" font-weight="600" letter-spacing="0.7" fill="#A9B6C6">DISTRIBUCIÓN</text><text x="754" y="970" font-family="Inter, 'Segoe UI', 'Helvetica Neue', Arial, sans-serif" font-size="16.5" font-weight="650" fill="#E7EBF0">App Store y Google Play</text><text x="754" y="990.5" font-family="'JetBrains Mono', 'Cascadia Code', Consolas, 'SFMono-Regular', monospace" font-size="12.2" fill="#9AA4B2">com.icgvault.app · versión 72</text></g><rect x="343.7" y="366.8" width="112.7" height="36.4" rx="4" fill="#0D1015" fill-opacity="0.94"/><text x="400.0" y="382.0" text-anchor="middle" font-family="Inter, 'Segoe UI', 'Helvetica Neue', Arial, sans-serif" font-size="12.2"  fill="#9AA4B2">Usa en web, iOS</text><text x="400.0" y="397.2" text-anchor="middle" font-family="Inter, 'Segoe UI', 'Helvetica Neue', Arial, sans-serif" font-size="12.2"  fill="#9AA4B2">y Android</text><rect x="360.4" y="599.4" width="79.1" height="21.2" rx="4" fill="#0D1015" fill-opacity="0.94"/><text x="400.0" y="614.6" text-anchor="middle" font-family="Inter, 'Segoe UI', 'Helvetica Neue', Arial, sans-serif" font-size="12.2"  fill="#9AA4B2">Administra</text><rect x="1000.4" y="224.4" width="99.2" height="21.2" rx="4" fill="#0D1015" fill-opacity="0.94"/><text x="1050.0" y="239.6" text-anchor="middle" font-family="Inter, 'Segoe UI', 'Helvetica Neue', Arial, sans-serif" font-size="12.2"  fill="#9AA4B2">Cine y series</text><rect x="1007.1" y="334.4" width="85.8" height="21.2" rx="4" fill="#0D1015" fill-opacity="0.94"/><text x="1050.0" y="349.6" text-anchor="middle" font-family="Inter, 'Segoe UI', 'Helvetica Neue', Arial, sans-serif" font-size="12.2"  fill="#9AA4B2">Videojuegos</text><rect x="1017.2" y="444.4" width="65.7" height="21.2" rx="4" fill="#0D1015" fill-opacity="0.94"/><text x="1050.0" y="459.6" text-anchor="middle" font-family="Inter, 'Segoe UI', 'Helvetica Neue', Arial, sans-serif" font-size="12.2"  fill="#9AA4B2">Duración</text><rect x="1020.5" y="554.4" width="59.0" height="21.2" rx="4" fill="#0D1015" fill-opacity="0.94"/><text x="1050.0" y="569.6" text-anchor="middle" font-family="Inter, 'Segoe UI', 'Helvetica Neue', Arial, sans-serif" font-size="12.2"  fill="#9AA4B2">Crítica</text><rect x="1010.5" y="656.8" width="79.1" height="36.4" rx="4" fill="#0D1015" fill-opacity="0.94"/><text x="1050.0" y="672.0" text-anchor="middle" font-family="Inter, 'Segoe UI', 'Helvetica Neue', Arial, sans-serif" font-size="12.2"  fill="#9AA4B2">Noticias y</text><text x="1050.0" y="687.2" text-anchor="middle" font-family="Inter, 'Segoe UI', 'Helvetica Neue', Arial, sans-serif" font-size="12.2"  fill="#9AA4B2">podcasts</text><rect x="1000.4" y="777.4" width="99.2" height="21.2" rx="4" fill="#0D1015" fill-opacity="0.94"/><text x="1050.0" y="792.6" text-anchor="middle" font-family="Inter, 'Segoe UI', 'Helvetica Neue', Arial, sans-serif" font-size="12.2"  fill="#FF9A5A">IA generativa</text><rect x="558.8" y="869.4" width="72.4" height="21.2" rx="4" fill="#0D1015" fill-opacity="0.94"/><text x="595.0" y="884.6" text-anchor="middle" font-family="Inter, 'Segoe UI', 'Helvetica Neue', Arial, sans-serif" font-size="12.2"  fill="#9AA4B2">Identidad</text><rect x="825.5" y="869.4" width="79.1" height="21.2" rx="4" fill="#0D1015" fill-opacity="0.94"/><text x="865.0" y="884.6" text-anchor="middle" font-family="Inter, 'Segoe UI', 'Helvetica Neue', Arial, sans-serif" font-size="12.2"  fill="#9AA4B2">Distribuye</text><text x="40" y="1030" font-family="Inter, 'Segoe UI', 'Helvetica Neue', Arial, sans-serif" font-size="10.5" font-weight="700" letter-spacing="0.8" fill="#9AA4B2">LEYENDA</text><line x1="40" y1="1048" x2="70" y2="1048" stroke="#C9D1DB" stroke-width="1.6"  marker-end="url(#icgvault-context-dark-a-user)"/><text x="78" y="1052" font-family="Inter, 'Segoe UI', 'Helvetica Neue', Arial, sans-serif" font-size="11.5" fill="#9AA4B2">Uso por personas</text><line x1="205.2" y1="1048" x2="235.2" y2="1048" stroke="#9FB0C4" stroke-width="1.5"  marker-end="url(#icgvault-context-dark-a-api)"/><text x="243.2" y="1052" font-family="Inter, 'Segoe UI', 'Helvetica Neue', Arial, sans-serif" font-size="11.5" fill="#9AA4B2">API externa (HTTPS)</text><line x1="389.375" y1="1048" x2="419.375" y2="1048" stroke="#FF9A5A" stroke-width="1.8"  marker-end="url(#icgvault-context-dark-a-ai)"/><text x="427.375" y="1052" font-family="Inter, 'Segoe UI', 'Helvetica Neue', Arial, sans-serif" font-size="11.5" fill="#9AA4B2">Inferencia de IA</text><line x1="554.575" y1="1048" x2="584.575" y2="1048" stroke="#F2B84B" stroke-width="1.5"  marker-end="url(#icgvault-context-dark-a-auth)"/><text x="592.575" y="1052" font-family="Inter, 'Segoe UI', 'Helvetica Neue', Arial, sans-serif" font-size="11.5" fill="#9AA4B2">Autenticación / secretos</text><line x1="770.375" y1="1048" x2="800.375" y2="1048" stroke="#A9B6C6" stroke-width="1.6" stroke-dasharray="2 4" marker-end="url(#icgvault-context-dark-a-deploy)"/><text x="808.375" y="1052" font-family="Inter, 'Segoe UI', 'Helvetica Neue', Arial, sans-serif" font-size="11.5" fill="#9AA4B2">Despliegue / distribución</text></svg>